<?xml version="1.0" encoding="UTF-8"?>
<svg version="1.1" xmlns="http://www.w3.org/2000/svg" width="153" height="82">
<path d="M0 0 C50.49 0 100.98 0 153 0 C153 27.06 153 54.12 153 82 C102.51 82 52.02 82 0 82 C0 54.94 0 27.88 0 0 Z " fill="#FAFAFB" transform="translate(0,0)"/>
<path d="M0 0 C4.96341049 4.25435185 9.46161697 8.36899691 14 13 C14.33 8.71 14.66 4.42 15 0 C20.66129431 4.69766975 25.85228904 9.74723372 31 15 C26.31645873 20.64426769 21.3792354 26.0058046 16 31 C15.67 31 15.34 31 15 31 C14.67 26.71 14.34 22.42 14 18 C12.60974609 19.40765625 12.60974609 19.40765625 11.19140625 20.84375 C9.98190204 22.06263021 8.77225949 23.28137316 7.5625 24.5 C6.95083984 25.12003906 6.33917969 25.74007812 5.70898438 26.37890625 C5.12568359 26.96542969 4.54238281 27.55195312 3.94140625 28.15625 C3.40201416 28.70087891 2.86262207 29.24550781 2.30688477 29.80664062 C1 31 1 31 0 31 C0 20.77 0 10.54 0 0 Z " fill="#E10E19" transform="translate(106,17)"/>
<path d="M0 0 C2.86455539 0.41774766 4.62134338 0.82341158 7 2.4375 C9.28062828 5.85844242 9.21925007 7.11937222 9.125 11.125 C9.10695313 12.11886719 9.08890625 13.11273438 9.0703125 14.13671875 C9.04710938 14.89597656 9.02390625 15.65523437 9 16.4375 C-1.75103676 17.00114659 -1.75103676 17.00114659 -6 13.4375 C-7.42662219 10.58425563 -7.31033868 8.60295451 -7 5.4375 C-4.99557018 1.89120109 -4.08993498 0.59644885 0 0 Z " fill="#101098" transform="translate(24,16.5625)"/>
<path d="M0 0 C8 0 8 0 10.5 1.6875 C12.29268598 4.45122422 12.58006212 5.76822531 12 9 C10.875 10.8125 10.875 10.8125 9 12 C5.8125 12.1875 5.8125 12.1875 3 12 C3 13.32 3 14.64 3 16 C2.01 16 1.02 16 0 16 C0 10.72 0 5.44 0 0 Z " fill="#111198" transform="translate(85,21)"/>
<path d="M0 0 C5.24284116 4.3690343 10.51941304 8.83277764 15 14 C15 14.66 15 15.32 15 16 C10.05 16 5.1 16 0 16 C0 10.72 0 5.44 0 0 Z " fill="#120C92" transform="translate(106,17)"/>
<path d="M0 0 C0 3.96 0 7.92 0 12 C-1.423125 12.061875 -2.84625 12.12375 -4.3125 12.1875 C-5.51326172 12.23970703 -5.51326172 12.23970703 -6.73828125 12.29296875 C-9 12 -9 12 -10.765625 10.67578125 C-12.69113285 8.06172155 -12.45804343 6.1408692 -12 3 C-8.79128544 -1.01089319 -4.71739485 -0.23586974 0 0 Z " fill="#0F0F97" transform="translate(59,21)"/>
<path d="M0 0 C2.64 0 5.28 0 8 0 C8 5.28 8 10.56 8 16 C5.36 16 2.72 16 0 16 C0 10.72 0 5.44 0 0 Z " fill="#DDDDF0" transform="translate(61,17)"/>
<path d="M0 0 C3.4375 0.8125 3.4375 0.8125 5.4375 3.8125 C5.8125 6.3125 5.8125 6.3125 5.4375 8.8125 C3.12969344 11.38659193 1.76352209 11.77989779 -1.6875 12.125 C-4.5625 11.8125 -4.5625 11.8125 -6.5625 9.8125 C-6.86328125 7.9375 -6.86328125 7.9375 -6.875 5.8125 C-6.89175781 5.11125 -6.90851563 4.41 -6.92578125 3.6875 C-6.80589844 3.06875 -6.68601562 2.45 -6.5625 1.8125 C-3.5625 -0.1875 -3.5625 -0.1875 0 0 Z " fill="#17179B" transform="translate(77.5625,21.1875)"/>
<path d="M0 0 C4.95 0 9.9 0 15 0 C10.60831493 5.27002208 6.0573621 10.35302051 1 15 C0.67 15 0.34 15 0 15 C0 10.05 0 5.1 0 0 Z " fill="#E40F1B" transform="translate(106,33)"/>
<path d="M0 0 C4.62 0 9.24 0 14 0 C11.97997083 4.04005835 9.61026707 6.65441932 6.4375 9.75 C5.93025391 10.25660156 5.42300781 10.76320313 4.90039062 11.28515625 C1.14048812 15 1.14048812 15 0 15 C0 10.05 0 5.1 0 0 Z " fill="#0D0D96" transform="translate(121,33)"/>
<path d="M0 0 C1.32 0 2.64 0 4 0 C4 2.97 4 5.94 4 9 C5.32 8.67 6.64 8.34 8 8 C8.33 5.36 8.66 2.72 9 0 C9.99 0 10.98 0 12 0 C12 3.96 12 7.92 12 12 C10.576875 12.061875 9.15375 12.12375 7.6875 12.1875 C6.48673828 12.23970703 6.48673828 12.23970703 5.26171875 12.29296875 C3 12 3 12 1.21875 10.78125 C-0.35672932 8.47862638 -0.30765272 7.07601256 -0.1875 4.3125 C-0.16042969 3.50425781 -0.13335937 2.69601563 -0.10546875 1.86328125 C-0.07066406 1.24839844 -0.03585938 0.63351563 0 0 Z " fill="#19199B" transform="translate(34,21)"/>
<path d="M0 0 C0.66 0 1.32 0 2 0 C2.33 0.66 2.66 1.32 3 2 C3.33 1.34 3.66 0.68 4 0 C8 0 12 0 16 0 C16 0.66 16 1.32 16 2 C14.68 2 13.36 2 12 2 C12 2.66 12 3.32 12 4 C13.32 4 14.64 4 16 4 C16 4.66 16 5.32 16 6 C13.30490965 6.99818161 12.2782959 7.11417268 9.5625 6 C6.50621199 4.80730224 5.12312313 5.1991992 2 6 C0.68 6 -0.64 6 -2 6 C-1.34 4.02 -0.68 2.04 0 0 Z " fill="#2E2E2E" transform="translate(102,60)"/>
<path d="M0 0 C3.66666667 0 7.33333333 0 11 0 C11 1.32 11 2.64 11 4 C11.66 4 12.32 4 13 4 C13.33 2.68 13.66 1.36 14 0 C14 1.65 14 3.3 14 5 C12.68 5.33 11.36 5.66 10 6 C10 6.66 10 7.32 10 8 C6.7 7.34 3.4 6.68 0 6 C0 4.02 0 2.04 0 0 Z " fill="#525252" transform="translate(67,60)"/>
<path d="M0 0 C2.375 0.75 2.375 0.75 3.375 1.75 C3.5625 4.6875 3.5625 4.6875 3.375 7.75 C2.715 8.41 2.055 9.07 1.375 9.75 C-1.75 9.375 -1.75 9.375 -4.625 8.75 C-5.95341008 3.31559513 -5.95341008 3.31559513 -4.5 0.8125 C-2.625 -0.25 -2.625 -0.25 0 0 Z " fill="#F1F1F9" transform="translate(25.625,20.25)"/>
<path d="M0 0 C0.99 0 1.98 0 3 0 C3 5.28 3 10.56 3 16 C2.01 16 1.02 16 0 16 C0 10.72 0 5.44 0 0 Z " fill="#000091" transform="translate(61,17)"/>
<path d="M0 0 C3.3 0 6.6 0 10 0 C10 1.65 10 3.3 10 5 C7.21176345 6.0326802 6.1322726 6.04509293 3.25 5.0625 C2.5075 4.711875 1.765 4.36125 1 4 C0.67 4.66 0.34 5.32 0 6 C0 4.02 0 2.04 0 0 Z " fill="#3F3F3F" transform="translate(46,60)"/>
<path d="M0 0 C1.23556641 0.01740234 1.23556641 0.01740234 2.49609375 0.03515625 C3.32238281 0.04417969 4.14867188 0.05320313 5 0.0625 C5.63808594 0.07410156 6.27617188 0.08570313 6.93359375 0.09765625 C6.93359375 1.74765625 6.93359375 3.39765625 6.93359375 5.09765625 C3.93359375 5.09765625 0.93359375 5.09765625 -2.06640625 5.09765625 C-2.62890625 3.16015625 -2.62890625 3.16015625 -3.06640625 1.09765625 C-2.06640625 0.09765625 -2.06640625 0.09765625 0 0 Z " fill="#8787CB" transform="translate(70.06640625,41.90234375)"/>
<path d="M0 0 C1.23556641 0.01740234 1.23556641 0.01740234 2.49609375 0.03515625 C3.32238281 0.04417969 4.14867187 0.05320313 5 0.0625 C5.63808594 0.07410156 6.27617188 0.08570313 6.93359375 0.09765625 C6.93359375 1.74765625 6.93359375 3.39765625 6.93359375 5.09765625 C3.96359375 5.09765625 0.99359375 5.09765625 -2.06640625 5.09765625 C-2.39640625 3.77765625 -2.72640625 2.45765625 -3.06640625 1.09765625 C-2.06640625 0.09765625 -2.06640625 0.09765625 0 0 Z " fill="#8080C8" transform="translate(37.06640625,41.90234375)"/>
<path d="M0 0 C2.64 0 5.28 0 8 0 C8.33 1.65 8.66 3.3 9 5 C7.125 5.625 7.125 5.625 5 6 C4.34 5.34 3.68 4.68 3 4 C2.01 4.33 1.02 4.66 0 5 C0 3.35 0 1.7 0 0 Z " fill="#5353B4" transform="translate(24,42)"/>
<path d="M0 0 C2.31 0 4.62 0 7 0 C7.66 1.98 8.32 3.96 9 6 C7.35 6 5.7 6 4 6 C3.67 5.34 3.34 4.68 3 4 C2.34 4 1.68 4 1 4 C0.67 4.66 0.34 5.32 0 6 C0 4.02 0 2.04 0 0 Z " fill="#2B2B2B" transform="translate(90,60)"/>
<path d="M0 0 C0.66 0.99 1.32 1.98 2 3 C1.34 3 0.68 3 0 3 C0.33 4.65 0.66 6.3 1 8 C-1.66666667 8 -4.33333333 8 -7 8 C-7 6.02 -7 4.04 -7 2 C-5.68 2.33 -4.36 2.66 -3 3 C-3 3.99 -3 4.98 -3 6 C-2.690625 5.195625 -2.38125 4.39125 -2.0625 3.5625 C-1 1 -1 1 0 0 Z " fill="#1D1D1D" transform="translate(43,58)"/>
<path d="M0 0 C0.598125 0.185625 1.19625 0.37125 1.8125 0.5625 C4.16408762 1.22093687 4.16408762 1.22093687 7 0 C7 1.65 7 3.3 7 5 C7.66 5.33 8.32 5.66 9 6 C6.03 6 3.06 6 0 6 C0 4.02 0 2.04 0 0 Z " fill="#2E2E2E" transform="translate(57,60)"/>
<path d="M0 0 C1.98 0 3.96 0 6 0 C6 1.98 6 3.96 6 6 C3.69 6 1.38 6 -1 6 C-0.67 4.02 -0.34 2.04 0 0 Z " fill="#E41924" transform="translate(27,60)"/>
<path d="M0 0 C2.31 0 4.62 0 7 0 C7.042721 1.66611905 7.04063832 3.33382885 7 5 C6 6 6 6 2.9375 6.0625 C1.4834375 6.0315625 1.4834375 6.0315625 0 6 C0 4.02 0 2.04 0 0 Z " fill="#0D0D96" transform="translate(17,60)"/>
<path d="M0 0 C2 0 4 0 6 0 C6 1.98 6 3.96 6 6 C3.36 6 0.72 6 -2 6 C-1.34 4.02 -0.68 2.04 0 0 Z " fill="#3D3D3D" transform="translate(121,60)"/>
<path d="M0 0 C0.99 0 1.98 0 3 0 C3 3.96 3 7.92 3 12 C2.01 12 1.02 12 0 12 C0 8.04 0 4.08 0 0 Z " fill="#0B0B96" transform="translate(98,21)"/>
<path d="M0 0 C0.99 0 1.98 0 3 0 C3 3.96 3 7.92 3 12 C2.01 12 1.02 12 0 12 C0 8.04 0 4.08 0 0 Z " fill="#000091" transform="translate(66,21)"/>
<path d="M0 0 C2.31 0 4.62 0 7 0 C7 1.65 7 3.3 7 5 C4.36 5 1.72 5 -1 5 C-1 2 -1 2 0 0 Z " fill="#6D6DC0" transform="translate(46,42)"/>
<path d="M0 0 C0.66 0.66 1.32 1.32 2 2 C1.96631321 6.36805319 1.42669049 10.64775705 1 15 C5.62 14.67 10.24 14.34 15 14 C15 14.99 15 15.98 15 17 C10.05 16.67 5.1 16.34 0 16 C0 10.72 0 5.44 0 0 Z " fill="#C63653" transform="translate(121,17)"/>
<path d="M0 0 C2.0625 0.4375 2.0625 0.4375 4 1 C4.33 2.32 4.66 3.64 5 5 C3.35 5.33 1.7 5.66 0 6 C-0.38218767 4.34385343 -0.71395102 2.67542976 -1 1 C-0.67 0.67 -0.34 0.34 0 0 Z " fill="#D6D6ED" transform="translate(89,24)"/>
<path d="M0 0 C0.66 0 1.32 0 2 0 C2 1.32 2 2.64 2 4 C2.66 4 3.32 4 4 4 C4.33 2.68 4.66 1.36 5 0 C5 1.65 5 3.3 5 5 C3.68 5.33 2.36 5.66 1 6 C1 6.66 1 7.32 1 8 C0.34 7.67 -0.32 7.34 -1 7 C-0.67 4.69 -0.34 2.38 0 0 Z " fill="#646464" transform="translate(76,60)"/>
<path d="M0 0 C2.475 0.495 2.475 0.495 5 1 C5 2.32 5 3.64 5 5 C4.01 5.33 3.02 5.66 2 6 C1.34 6.66 0.68 7.32 0 8 C0 5.36 0 2.72 0 0 Z " fill="#6262BB" transform="translate(18,42)"/>
<path d="M0 0 C2.0625 0.4375 2.0625 0.4375 4 1 C4 2.32 4 3.64 4 5 C2.68 5.33 1.36 5.66 0 6 C-0.38218767 4.34385343 -0.71395102 2.67542976 -1 1 C-0.67 0.67 -0.34 0.34 0 0 Z " fill="#EFEFF8" transform="translate(75,24)"/>
<path d="M0 0 C1.32 0.66 2.64 1.32 4 2 C3.67 3.32 3.34 4.64 3 6 C1.35 5.67 -0.3 5.34 -2 5 C-1.125 1.125 -1.125 1.125 0 0 Z " fill="#DDDDF0" transform="translate(52,24)"/>
<path d="M0 0 C1.32 0 2.64 0 4 0 C4 0.66 4 1.32 4 2 C2.68 2 1.36 2 0 2 C0 2.66 0 3.32 0 4 C1.32 4 2.64 4 4 4 C4 4.66 4 5.32 4 6 C0.25 7.125 0.25 7.125 -2 6 C-1.125 1.125 -1.125 1.125 0 0 Z " fill="#4C4C4C" transform="translate(114,60)"/>
<path d="M0 0 C0.99 0.33 1.98 0.66 3 1 C3 1.66 3 2.32 3 3 C2.34 3 1.68 3 1 3 C0.67 4.32 0.34 5.64 0 7 C-0.99 7 -1.98 7 -3 7 C-3 5.35 -3 3.7 -3 2 C-2.01 2 -1.02 2 0 2 C0 1.34 0 0.68 0 0 Z " fill="#5353B4" transform="translate(90,40)"/>
<path d="M0 0 C0 1.65 0 3.3 0 5 C-0.99 5 -1.98 5 -3 5 C-3 3.68 -3 2.36 -3 1 C-5.33075929 1.95865509 -5.33075929 1.95865509 -7 5 C-7 3.35 -7 1.7 -7 0 C-3.98968256 -0.93423645 -3.13349732 -1.04449911 0 0 Z " fill="#3333A7" transform="translate(86,42)"/>
<path d="M0 0 C2 3 2 3 2 7 C1.01 7.33 0.02 7.66 -1 8 C-1.66 7.34 -2.32 6.68 -3 6 C-2.625 3.875 -2.625 3.875 -2 2 C-1.34 2 -0.68 2 0 2 C0 1.34 0 0.68 0 0 Z " fill="#4242AD" transform="translate(99,40)"/>
<path d="M0 0 C0.99 0.33 1.98 0.66 3 1 C2.67 2.65 2.34 4.3 2 6 C1.01 6 0.02 6 -1 6 C-1.042721 4.33388095 -1.04063832 2.66617115 -1 1 C-0.67 0.67 -0.34 0.34 0 0 Z " fill="#373737" transform="translate(129,60)"/>
<path d="M0 0 C1.32 0 2.64 0 4 0 C4 1.65 4 3.3 4 5 C2.68 5 1.36 5 0 5 C0 3.35 0 1.7 0 0 Z " fill="#3C3CAB" transform="translate(73,42)"/>
<path d="M0 0 C1.65 0 3.3 0 5 0 C5 1.32 5 2.64 5 4 C3.35 4 1.7 4 0 4 C0 2.68 0 1.36 0 0 Z " fill="#7070C1" transform="translate(64,17)"/>
<path d="M0 0 C1.32 0 2.64 0 4 0 C3.67 1.65 3.34 3.3 3 5 C2.01 4.67 1.02 4.34 0 4 C0 2.68 0 1.36 0 0 Z " fill="#9696D1" transform="translate(29,43)"/>
<path d="M0 0 C1.32 0 2.64 0 4 0 C4 1.65 4 3.3 4 5 C2.68 5 1.36 5 0 5 C0 3.35 0 1.7 0 0 Z " fill="#3737A8" transform="translate(40,42)"/>
</svg>
