<?xml version="1.0" encoding="UTF-8"?>
<svg version="1.1" xmlns="http://www.w3.org/2000/svg" width="200" height="107">
<path d="M0 0 C2.64 0 5.28 0 8 0 C8.99 4.29 9.98 8.58 11 13 C11.33 8.71 11.66 4.42 12 0 C14.31 0 16.62 0 19 0 C19 13.86 19 27.72 19 42 C16.69 42 14.38 42 12 42 C11.51891725 40.58398286 11.04021859 39.16715563 10.5625 37.75 C10.29566406 36.96109375 10.02882812 36.1721875 9.75390625 35.359375 C9.0846051 33.2647745 8.53332008 31.13328033 8 29 C7.67 33.29 7.34 37.58 7 42 C4.69 42 2.38 42 0 42 C0 28.14 0 14.28 0 0 Z " fill="#4F274E" transform="translate(141,59)"/>
<path d="M0 0 C2.64 0 5.28 0 8 0 C8.99 4.29 9.98 8.58 11 13 C11.33 8.71 11.66 4.42 12 0 C14.31 0 16.62 0 19 0 C19 13.86 19 27.72 19 42 C16.69 42 14.38 42 12 42 C11.51891725 40.58398286 11.04021859 39.16715563 10.5625 37.75 C10.29566406 36.96109375 10.02882813 36.1721875 9.75390625 35.359375 C9.0846051 33.2647745 8.53332008 31.13328033 8 29 C7.67 33.29 7.34 37.58 7 42 C4.69 42 2.38 42 0 42 C0 28.14 0 14.28 0 0 Z " fill="#4F274E" transform="translate(40,59)"/>
<path d="M0 0 C2.64 0 5.28 0 8 0 C8.99 4.29 9.98 8.58 11 13 C11.33 8.71 11.66 4.42 12 0 C14.31 0 16.62 0 19 0 C19 13.86 19 27.72 19 42 C16.69 42 14.38 42 12 42 C11.51891725 40.58398286 11.04021859 39.16715563 10.5625 37.75 C10.29566406 36.96109375 10.02882812 36.1721875 9.75390625 35.359375 C9.0846051 33.2647745 8.53332008 31.13328033 8 29 C7.67 33.29 7.34 37.58 7 42 C4.69 42 2.38 42 0 42 C0 28.14 0 14.28 0 0 Z " fill="#4F274E" transform="translate(142,6)"/>
<path d="M0 0 C2.64 0 5.28 0 8 0 C8.99 4.29 9.98 8.58 11 13 C11.33 8.71 11.66 4.42 12 0 C14.31 0 16.62 0 19 0 C19 13.86 19 27.72 19 42 C16.69 42 14.38 42 12 42 C11.51891725 40.58398286 11.04021859 39.16715563 10.5625 37.75 C10.29566406 36.96109375 10.02882813 36.1721875 9.75390625 35.359375 C9.0846051 33.2647745 8.53332008 31.13328033 8 29 C7.67 33.29 7.34 37.58 7 42 C4.69 42 2.38 42 0 42 C0 28.14 0 14.28 0 0 Z " fill="#4F274E" transform="translate(55,6)"/>
<path d="M0 0 C4.29 0 8.58 0 13 0 C17 4 17 4 17.42578125 7.8984375 C17.40857969 9.39100358 17.37016305 10.88344901 17.3125 12.375 C17.30283203 13.1175 17.29316406 13.86 17.28320312 14.625 C17.21636211 17.91474025 17.00422868 20.97642797 16.421875 24.22265625 C15.9719124 27.18491001 16.23574778 29.16834542 16.9375 32.0625 C17.75074598 35.47167022 18.10633916 38.49080775 18 42 C15.69 42 13.38 42 11 42 C10.01 37.38 9.02 32.76 8 28 C7.67 32.62 7.34 37.24 7 42 C4.69 42 2.38 42 0 42 C0 28.14 0 14.28 0 0 Z M7 7 C7 11.29 7 15.58 7 20 C8.32 19.34 9.64 18.68 11 18 C11.0270043 16.54176788 11.04639787 15.08339325 11.0625 13.625 C11.07410156 12.81289063 11.08570312 12.00078125 11.09765625 11.1640625 C11.14466334 8.95062858 11.14466334 8.95062858 10 7 C9.01 7 8.02 7 7 7 Z " fill="#4F274E" transform="translate(100,6)"/>
<path d="M0 0 C4.29 0 8.58 0 13 0 C17.19698183 5.24622729 17.50199789 5.89779066 17.4609375 12.12890625 C17.45956284 13.13618019 17.45956284 13.13618019 17.4581604 14.1638031 C17.45214426 15.57664096 17.43645788 16.98946726 17.41162109 18.40209961 C17.3750498 20.55956191 17.37060252 22.71530647 17.37109375 24.87304688 C17.28550685 36.8614007 17.28550685 36.8614007 15 40 C11 42 11 42 0 42 C0 28.14 0 14.28 0 0 Z M7 7 C7 16.24 7 25.48 7 35 C8.32 34.34 9.64 33.68 11 33 C11.02892857 29.04168191 11.04677427 25.08339083 11.0625 21.125 C11.07087891 19.99707031 11.07925781 18.86914062 11.08789062 17.70703125 C11.09111328 16.63066406 11.09433594 15.55429687 11.09765625 14.4453125 C11.10289307 13.45031738 11.10812988 12.45532227 11.11352539 11.43017578 C11.1639415 8.99039227 11.1639415 8.99039227 10 7 C9.01 7 8.02 7 7 7 Z " fill="#4F274E" transform="translate(19,6)"/>
<path d="M0 0 C2.5 1.875 2.5 1.875 4 5 C4.3080206 8.36255818 4.23524404 11.6347033 4 15 C2.02 15 0.04 15 -2 15 C-2.66 12.69 -3.32 10.38 -4 8 C-4.33 8 -4.66 8 -5 8 C-5.33 16.58 -5.66 25.16 -6 34 C-5.01 34 -4.02 34 -3 34 C-2.67 30.7 -2.34 27.4 -2 24 C-2.99 24 -3.98 24 -5 24 C-5 21.69 -5 19.38 -5 17 C-2.03 17 0.94 17 4 17 C4.13523325 20.23057217 4.23421546 23.4554669 4.3125 26.6875 C4.35439453 27.59951172 4.39628906 28.51152344 4.43945312 29.45117188 C4.52423924 34.11440808 4.5424601 36.27671986 1.66796875 40.109375 C-1 42 -1 42 -4 42.5625 C-7.68233904 41.87206143 -9.36813928 40.63186072 -12 38 C-13.7956777 32.61296691 -13.2273489 26.82479205 -13.25 21.1875 C-13.270625 19.91583984 -13.29125 18.64417969 -13.3125 17.33398438 C-13.31765625 16.10357422 -13.3228125 14.87316406 -13.328125 13.60546875 C-13.3374707 12.48293701 -13.34681641 11.36040527 -13.35644531 10.20385742 C-12.94907654 6.54228176 -11.9006196 4.13868298 -10 1 C-6.77437344 -0.61281328 -3.48817637 -0.57906485 0 0 Z " fill="#4F274E" transform="translate(175,59)"/>
<path d="M0 0 C3.99449279 3.95956368 4.51943931 6.77388023 4.56640625 12.3125 C4.57570412 13.3495105 4.57570412 13.3495105 4.58518982 14.4074707 C4.59226547 15.86310423 4.58915328 17.31881907 4.57641602 18.77441406 C4.56253527 20.99435987 4.59665789 23.21009645 4.63476562 25.4296875 C4.63571685 26.84895936 4.63385779 28.26823646 4.62890625 29.6875 C4.62963135 30.97011719 4.63035645 32.25273438 4.63110352 33.57421875 C3.84118059 37.86210983 2.38872231 39.34075742 -1 42 C-4.9363755 42.73807041 -6.43925798 42.36136708 -9.8125 40.1875 C-14.72876034 35.27123966 -13.22386777 27.69115828 -13.25 21.1875 C-13.270625 19.91583984 -13.29125 18.64417969 -13.3125 17.33398438 C-13.31765625 16.10357422 -13.3228125 14.87316406 -13.328125 13.60546875 C-13.3374707 12.48293701 -13.34681641 11.36040527 -13.35644531 10.20385742 C-12.94907654 6.54228176 -11.9006196 4.13868298 -10 1 C-6.86599115 -0.56700442 -3.36844905 -0.85164561 0 0 Z M-5 7 C-6.28426897 8.05950052 -6.28426897 8.05950052 -6.11352539 10.50024414 C-6.10828857 11.58426514 -6.10305176 12.66828613 -6.09765625 13.78515625 C-6.09443359 14.95498047 -6.09121094 16.12480469 -6.08789062 17.33007812 C-6.07951172 18.56177734 -6.07113281 19.79347656 -6.0625 21.0625 C-6.05798828 22.29806641 -6.05347656 23.53363281 -6.04882812 24.80664062 C-6.03699608 27.87114117 -6.02051173 30.93554721 -6 34 C-5.01 34 -4.02 34 -3 34 C-1.06059697 30.12119395 -1.77158815 25.32885864 -1.75 21.0625 C-1.729375 20.04736328 -1.70875 19.03222656 -1.6875 17.98632812 C-1.68234375 17.01244141 -1.6771875 16.03855469 -1.671875 15.03515625 C-1.6625293 14.1419165 -1.65318359 13.24867676 -1.64355469 12.32836914 C-2.06511984 9.57462471 -2.8617212 8.713093 -5 7 Z " fill="#4F274E" transform="translate(33,59)"/>
<path d="M0 0 C2.05078125 0.03255208 4.1015625 0.06510417 6.15234375 0.09765625 C8.14226063 8.89024996 9.19957362 17.78490509 10.27734375 26.72265625 C10.46059045 28.21879255 10.64418165 29.71488669 10.828125 31.2109375 C11.27350012 34.83936687 11.7142242 38.46834278 12.15234375 42.09765625 C9.819396 42.14007348 7.48531808 42.13858562 5.15234375 42.09765625 C4.15234375 41.09765625 4.15234375 41.09765625 4.0546875 39.25 C4.10351562 36.17382812 4.10351562 36.17382812 4.15234375 33.09765625 C2.83234375 33.09765625 1.51234375 33.09765625 0.15234375 33.09765625 C-0.17765625 36.06765625 -0.50765625 39.03765625 -0.84765625 42.09765625 C-3.15765625 42.09765625 -5.46765625 42.09765625 -7.84765625 42.09765625 C-6.82708599 31.69984629 -5.67223767 21.32850908 -4.28515625 10.97265625 C-4.15842529 10.0069873 -4.03169434 9.04131836 -3.90112305 8.04638672 C-3.77906494 7.15322754 -3.65700684 6.26006836 -3.53125 5.33984375 C-3.42353271 4.54433105 -3.31581543 3.74881836 -3.20483398 2.92919922 C-2.72694379 0.47866454 -2.51552595 0.13295592 0 0 Z M1.15234375 22.09765625 C1.15234375 23.41765625 1.15234375 24.73765625 1.15234375 26.09765625 C1.81234375 25.76765625 2.47234375 25.43765625 3.15234375 25.09765625 C2.49234375 24.10765625 1.83234375 23.11765625 1.15234375 22.09765625 Z " fill="#4F274E" transform="translate(127.84765625,5.90234375)"/>
<path d="M0 0 C2.31 0 4.62 0 7 0 C7 11.22 7 22.44 7 34 C7.99 34 8.98 34 10 34 C10.33 22.78 10.66 11.56 11 0 C12.98 0 14.96 0 17 0 C17.12385084 5.17772746 17.21445571 10.35458788 17.2746582 15.53344727 C17.29976061 17.29401676 17.33385028 19.05448247 17.37719727 20.81469727 C17.43804115 23.34938179 17.46625113 25.88268575 17.48828125 28.41796875 C17.51408768 29.20149216 17.5398941 29.98501556 17.56648254 30.7922821 C17.568636 35.01412008 17.3514032 36.54988022 14.65698242 40.0012207 C12 42 12 42 9 42.5625 C5.31766096 41.87206143 3.63186072 40.63186072 1 38 C-0.23180134 34.30459598 -0.12412112 30.89696622 -0.09765625 27.05078125 C-0.0962413 26.27816452 -0.09482635 25.50554779 -0.09336853 24.70951843 C-0.08777466 22.24380611 -0.07522333 19.77818485 -0.0625 17.3125 C-0.05748421 15.63997527 -0.05292144 13.96744912 -0.04882812 12.29492188 C-0.03780724 8.19657954 -0.02054684 4.09830521 0 0 Z " fill="#4F274E" transform="translate(81,59)"/>
<path d="M0 0 C2.5 1.875 2.5 1.875 4 5 C4.3080206 8.36255818 4.23524404 11.6347033 4 15 C2.02 15 0.04 15 -2 15 C-2.66 12.69 -3.32 10.38 -4 8 C-4.33 8 -4.66 8 -5 8 C-5.33 16.58 -5.66 25.16 -6 34 C-5.01 34 -4.02 34 -3 34 C-2.67 31.36 -2.34 28.72 -2 26 C-0.02 26 1.96 26 4 26 C4.7752545 35.83711825 4.7752545 35.83711825 1.875 40.1875 C-1.53610376 42.33797846 -3.04490483 42.74158034 -7 42 C-10.33761045 39.84909549 -11.73470933 38.79587201 -13 35 C-13.26324234 30.40003951 -13.23149002 25.79417198 -13.25 21.1875 C-13.270625 19.91583984 -13.29125 18.64417969 -13.3125 17.33398438 C-13.31765625 16.10357422 -13.3228125 14.87316406 -13.328125 13.60546875 C-13.3374707 12.48293701 -13.34681641 11.36040527 -13.35644531 10.20385742 C-12.94907654 6.54228176 -11.9006196 4.13868298 -10 1 C-6.77437344 -0.61281328 -3.48817637 -0.57906485 0 0 Z " fill="#4F274E" transform="translate(14,59)"/>
<path d="M0 0 C2.5 1.875 2.5 1.875 4 5 C4.3080206 8.36255818 4.23524404 11.6347033 4 15 C2.02 15 0.04 15 -2 15 C-2.66 12.69 -3.32 10.38 -4 8 C-4.33 8 -4.66 8 -5 8 C-5.33 16.58 -5.66 25.16 -6 34 C-5.01 34 -4.02 34 -3 34 C-2.67 31.36 -2.34 28.72 -2 26 C-0.02 26 1.96 26 4 26 C4.7752545 35.83711825 4.7752545 35.83711825 1.875 40.1875 C-1.53610376 42.33797846 -3.04490483 42.74158034 -7 42 C-10.33761045 39.84909549 -11.73470933 38.79587201 -13 35 C-13.26324234 30.40003951 -13.23149002 25.79417198 -13.25 21.1875 C-13.270625 19.91583984 -13.29125 18.64417969 -13.3125 17.33398438 C-13.31765625 16.10357422 -13.3228125 14.87316406 -13.328125 13.60546875 C-13.3374707 12.48293701 -13.34681641 11.36040527 -13.35644531 10.20385742 C-12.94907654 6.54228176 -11.9006196 4.13868298 -10 1 C-6.77437344 -0.61281328 -3.48817637 -0.57906485 0 0 Z " fill="#4F274E" transform="translate(176,6)"/>
<path d="M0 0 C3.03379359 0.66656245 4.21477419 1.85286302 5.90234375 4.41796875 C6.65234375 7.66796875 6.65234375 7.66796875 6.90234375 10.41796875 C4.59234375 10.74796875 2.28234375 11.07796875 -0.09765625 11.41796875 C-0.75765625 10.42796875 -1.41765625 9.43796875 -2.09765625 8.41796875 C-2.70101246 11.77952477 -2.49709699 13.81094464 -0.609375 16.6796875 C0.62789345 18.2294751 1.88912746 19.76049286 3.17578125 21.26953125 C7.11953283 26.17691443 7.56016039 30.26738314 6.90234375 36.41796875 C5.96484375 39.41796875 5.96484375 39.41796875 3.90234375 41.41796875 C0.82884794 42.47207714 -1.86787727 42.79194316 -5.09765625 42.41796875 C-9.02289688 39.80114167 -9.9266648 38.22031322 -10.91015625 33.60546875 C-10.97203125 32.55359375 -11.03390625 31.50171875 -11.09765625 30.41796875 C-7.63265625 29.92296875 -7.63265625 29.92296875 -4.09765625 29.41796875 C-3.76765625 30.73796875 -3.43765625 32.05796875 -3.09765625 33.41796875 C-2.43765625 33.41796875 -1.77765625 33.41796875 -1.09765625 33.41796875 C-1.22594218 27.26024392 -3.24309303 24.58043107 -7.50390625 20.21484375 C-10.70318486 16.60781395 -10.44087533 12.4531369 -10.3671875 7.87109375 C-10.09765625 5.41796875 -10.09765625 5.41796875 -8.59765625 2.29296875 C-5.55487101 0.01087982 -3.7333037 -0.25722949 0 0 Z " fill="#4F274E" transform="translate(71.09765625,58.58203125)"/>
<path d="M0 0 C5.28 0 10.56 0 16 0 C16 2.31 16 4.62 16 7 C13.03 7 10.06 7 7 7 C7 10.63 7 14.26 7 18 C8.98 18 10.96 18 13 18 C13 20.31 13 22.62 13 25 C11.02 25 9.04 25 7 25 C7 28.3 7 31.6 7 35 C9.97 35 12.94 35 16 35 C16 37.31 16 39.62 16 42 C10.72 42 5.44 42 0 42 C0 28.14 0 14.28 0 0 Z " fill="#4F274E" transform="translate(182,6)"/>
<path d="M0 0 C5.28 0 10.56 0 16 0 C16 2.31 16 4.62 16 7 C13.03 7 10.06 7 7 7 C7 10.63 7 14.26 7 18 C8.98 18 10.96 18 13 18 C13 20.31 13 22.62 13 25 C11.02 25 9.04 25 7 25 C7 28.3 7 31.6 7 35 C9.97 35 12.94 35 16 35 C16 37.31 16 39.62 16 42 C10.72 42 5.44 42 0 42 C0 28.14 0 14.28 0 0 Z " fill="#4F274E" transform="translate(38,6)"/>
<path d="M0 0 C5.28 0 10.56 0 16 0 C16 2.31 16 4.62 16 7 C13.03 7 10.06 7 7 7 C7 10.63 7 14.26 7 18 C8.98 18 10.96 18 13 18 C13 20.31 13 22.62 13 25 C11.02 25 9.04 25 7 25 C7 28.3 7 31.6 7 35 C9.97 35 12.94 35 16 35 C16 37.31 16 39.62 16 42 C10.72 42 5.44 42 0 42 C0 28.14 0 14.28 0 0 Z " fill="#4F274E" transform="translate(1,6)"/>
<path d="M0 0 C5.28 0 10.56 0 16 0 C16 2.31 16 4.62 16 7 C13.03 7 10.06 7 7 7 C7 10.63 7 14.26 7 18 C8.98 18 10.96 18 13 18 C13 20.31 13 22.62 13 25 C11.02 25 9.04 25 7 25 C7 30.61 7 36.22 7 42 C4.69 42 2.38 42 0 42 C0 28.14 0 14.28 0 0 Z " fill="#4F274E" transform="translate(82,6)"/>
<path d="M0 0 C5.61 0 11.22 0 17 0 C17 2.31 17 4.62 17 7 C15.35 7 13.7 7 12 7 C12 18.55 12 30.1 12 42 C9.69 42 7.38 42 5 42 C5 30.45 5 18.9 5 7 C3.35 7 1.7 7 0 7 C0 4.69 0 2.38 0 0 Z " fill="#4F274E" transform="translate(112,59)"/>
<path d="M0 0 C2.31 0 4.62 0 7 0 C7 11.55 7 23.1 7 35 C9.64 35 12.28 35 15 35 C15 37.31 15 39.62 15 42 C10.05 42 5.1 42 0 42 C0 28.14 0 14.28 0 0 Z " fill="#4F274E" transform="translate(100,59)"/>
<path d="M0 0 C2.31 0 4.62 0 7 0 C7 13.86 7 27.72 7 42 C4.69 42 2.38 42 0 42 C0 28.14 0 14.28 0 0 Z " fill="#4F274E" transform="translate(131,59)"/>
</svg>
