<?xml version="1.0" encoding="UTF-8"?>
<svg version="1.1" xmlns="http://www.w3.org/2000/svg" width="634" height="339">
<path d="M0 0 C209.22 0 418.44 0 634 0 C634 111.87 634 223.74 634 339 C424.78 339 215.56 339 0 339 C0 227.13 0 115.26 0 0 Z " fill="#FEFEFE" transform="translate(0,0)"/>
<path d="M0 0 C4.13845674 2.06922837 5.74882804 3.71162276 8.765625 7.13671875 C14.71119276 13.74499875 20.94609683 20.05239784 27.234375 26.33203125 C27.73777908 26.83505642 28.24118317 27.33808159 28.75984192 27.85634995 C31.88625765 30.9793253 35.01646427 34.09847782 38.14782715 37.2164917 C41.32259346 40.37904272 44.49347554 43.54548801 47.66503906 46.71125031 C52.44045491 51.47709155 57.2206554 56.23808413 62 61 C62.33 40.87 62.66 20.74 63 0 C66.85778317 1.92889158 68.8337861 3.59468633 71.8125 6.625 C73.02873047 7.85089844 73.02873047 7.85089844 74.26953125 9.1015625 C76.26102701 11.21556801 78.15662203 13.33941102 80.04003906 15.54443359 C84.49882066 20.65106738 89.28432228 25.40940165 94.08984375 30.1875 C95.04412993 31.13991612 95.99819188 32.09255695 96.95204163 33.04541016 C99.4370797 35.52666925 101.92510796 38.00490791 104.41381836 40.48248291 C106.96327496 43.02162485 109.50982688 45.56367646 112.05664062 48.10546875 C117.03495631 53.07312882 122.01644371 58.03759686 127 63 C126.0444276 64.12258368 125.08775329 65.24422945 124.13061523 66.36547852 C123.59798569 66.99019547 123.06535614 67.61491241 122.5165863 68.25856018 C120.22342959 70.891707 117.73186533 73.2908732 115.22265625 75.71484375 C113.37721233 77.61218064 111.66661239 79.54169727 109.94848633 81.55151367 C105.71186872 86.40594636 101.17848788 90.92946092 96.6015625 95.4609375 C95.72599701 96.33271637 94.85043152 97.20449524 93.94833374 98.10269165 C90.70304953 101.33377315 87.45315172 104.56018902 84.203125 107.78649902 C80.99988559 110.96692099 77.80036817 114.15105723 74.6015625 117.3359375 C73.75373199 118.17546967 72.90590149 119.01500183 72.03237915 119.87997437 C71.25421844 120.65483185 70.47605774 121.42968933 69.67431641 122.22802734 C68.98705475 122.91005219 68.29979309 123.59207703 67.59170532 124.29476929 C65.9195684 125.92470219 65.9195684 125.92470219 65 128 C64.34 128 63.68 128 63 128 C62.67 107.54 62.34 87.08 62 66 C49.71927833 78.23736997 49.71927833 78.23736997 38 91 C36.62599275 92.45190842 35.23732161 93.89031342 33.82470703 95.3046875 C33.08769562 96.04485107 32.3506842 96.78501465 31.59133911 97.54760742 C30.82127533 98.31564697 30.05121155 99.08368652 29.2578125 99.875 C28.04434647 101.08990112 28.04434647 101.08990112 26.80636597 102.3293457 C25.11172181 104.02466573 23.41583277 105.71874222 21.71875 107.41162109 C19.10820384 110.01676138 16.50310068 112.62726046 13.8984375 115.23828125 C12.24771682 116.88834201 10.59668643 118.53809301 8.9453125 120.1875 C8.16310333 120.9717334 7.38089417 121.7559668 6.57498169 122.56396484 C5.85688324 123.27891113 5.13878479 123.99385742 4.39892578 124.73046875 C3.7649588 125.36364014 3.13099182 125.99681152 2.47781372 126.64916992 C1 128 1 128 0 128 C0 85.76 0 43.52 0 0 Z " fill="#040493" transform="translate(440,69)"/>
<path d="M0 0 C6.29217541 5.37182736 10.50179241 11.20068974 13.1171875 19.046875 C13.72632522 27.28521306 13.73694814 34.46756454 9.9921875 41.99609375 C8.85556171 44.2884525 8.85556171 44.2884525 9.1171875 48.046875 C10.12253926 49.7434061 11.13054507 51.44144755 12.2421875 53.0703125 C13.1171875 55.046875 13.1171875 55.046875 13.1171875 61.046875 C8.4971875 61.046875 3.8771875 61.046875 -0.8828125 61.046875 C-1.5428125 59.726875 -2.2028125 58.406875 -2.8828125 57.046875 C-3.7284375 57.2634375 -4.5740625 57.48 -5.4453125 57.703125 C-17.20431284 60.58942508 -25.52698101 61.11959973 -36.8828125 56.046875 C-43.35474725 51.63694891 -48.31592797 46.50874864 -50.8828125 39.046875 C-51.10453125 38.42296875 -51.32625 37.7990625 -51.5546875 37.15625 C-54.03121889 28.92345647 -53.88855463 20.39749448 -50.33984375 12.53515625 C-44.9235788 3.28539547 -38.03878105 -2.27313797 -27.8828125 -5.203125 C-18.13023966 -7.2781405 -8.34252539 -5.65211747 0 0 Z " fill="#030392" transform="translate(120.8828125,72.953125)"/>
<path d="M0 0 C7.31270141 3.81260501 12.0722107 9.60143383 15.28515625 17.12890625 C16.35264586 24.7169782 16.12729565 31.7269457 11.8359375 38.23046875 C7.55579359 43.47014115 2.84930873 47.19194322 -3.71484375 49.12890625 C-10.99411613 49.83525074 -15.01034489 49.48115568 -21.71484375 46.12890625 C-21.71484375 51.73890625 -21.71484375 57.34890625 -21.71484375 63.12890625 C-26.00484375 63.12890625 -30.29484375 63.12890625 -34.71484375 63.12890625 C-34.71484375 42.33890625 -34.71484375 21.54890625 -34.71484375 0.12890625 C-29.43484375 0.12890625 -24.15484375 0.12890625 -18.71484375 0.12890625 C-13.49073989 -2.48314568 -5.42356908 -1.74022432 0 0 Z " fill="#020292" transform="translate(385.71484375,84.87109375)"/>
<path d="M0 0 C1.11246094 -0.00515625 2.22492188 -0.0103125 3.37109375 -0.015625 C6.509509 0.24558949 8.73085425 0.91621546 11.5625 2.25 C11.8925 1.92 12.2225 1.59 12.5625 1.25 C16.8525 1.25 21.1425 1.25 25.5625 1.25 C25.5625 17.09 25.5625 32.93 25.5625 49.25 C20.22916667 49.25 14.89583333 49.25 9.5625 49.25 C8.93859375 49.40984375 8.3146875 49.5696875 7.671875 49.734375 C0.80896337 51.41197562 -6.26099907 50.65285394 -12.4375 47.25 C-18.99700617 42.9440665 -22.00033675 37.56148974 -24.4375 30.25 C-25.07369638 21.65395122 -23.89997105 15.14996343 -18.4375 8.25 C-12.5514533 3.16329298 -7.93867738 -0.03671065 0 0 Z " fill="#020292" transform="translate(218.4375,83.75)"/>
<path d="M0 0 C3.85778317 1.92889158 5.8337861 3.59468633 8.8125 6.625 C9.62332031 7.44226563 10.43414063 8.25953125 11.26953125 9.1015625 C13.26157674 11.21615156 15.1566962 13.34056136 17.04003906 15.54663086 C21.49343029 20.6471636 26.28187963 25.38849307 31.08984375 30.15234375 C32.04420442 31.10228885 32.998265 32.05253552 33.95204163 33.00306702 C36.94435556 35.98407216 39.94064902 38.961057 42.9375 41.9375 C46.43706616 45.41344673 49.93497295 48.89103172 53.42874336 52.37280464 C54.82496988 53.76253904 56.22422971 55.14922379 57.6235199 56.53587341 C58.88096764 57.78836632 58.88096764 57.78836632 60.16381836 59.06616211 C60.90659531 59.80370224 61.64937225 60.54124237 62.41465759 61.3011322 C64 63 64 63 64 64 C42.88 64 21.76 64 0 64 C0 42.88 0 21.76 0 0 Z " fill="#E10D19" transform="translate(503,69)"/>
<path d="M0 0 C5.81061516 4.16848479 9.70679377 9.49125747 11.15625 16.546875 C11.99252214 24.19721645 11.47631946 30.10440208 7.15625 36.546875 C6.599375 37.43375 6.0425 38.320625 5.46875 39.234375 C0.22778039 44.47534461 -6.5045983 47.69685384 -13.84375 47.921875 C-21.41226572 47.84660799 -27.05145584 46.00171926 -32.6875 40.8671875 C-39.05482233 33.84440551 -40.41790275 27.54863523 -40.1796875 18.17578125 C-39.40152278 9.76979259 -35.42870582 5.68406197 -29.2578125 0.2109375 C-20.59945713 -5.75744339 -8.85835716 -5.11944018 0 0 Z " fill="#040492" transform="translate(331.84375,86.453125)"/>
<path d="M0 0 C4.1339884 2.0669942 5.72530852 3.69079669 8.734375 7.11328125 C14.74410474 13.79908438 21.07564668 20.14867871 27.453125 26.48046875 C28.49592954 27.51746746 29.53869457 28.5545059 30.5814209 29.59158325 C34.90912809 33.8933468 39.2419177 38.18996474 43.57861328 42.48266602 C46.26150859 45.13887278 48.93958479 47.79985901 51.61470795 50.46389198 C52.62876163 51.47173855 53.64470877 52.47768371 54.66257477 53.48167992 C56.07151788 54.87152881 57.47392523 56.26799404 58.87597656 57.66479492 C59.67473206 58.45609299 60.47348755 59.24739105 61.29644775 60.06266785 C63 62 63 62 63 64 C42.21 64 21.42 64 0 64 C0 42.88 0 21.76 0 0 Z " fill="#030392" transform="translate(440,69)"/>
<path d="M0 0 C20.79 0 41.58 0 63 0 C58.6705572 5.0510166 54.32951658 9.75702691 49.58789062 14.37304688 C46.88296818 17.03542794 44.31935698 19.75710673 41.8527832 22.64282227 C37.84180544 27.24632448 33.57952405 31.56464873 29.2578125 35.875 C28.44883514 36.68493408 27.63985779 37.49486816 26.80636597 38.3293457 C25.11172181 40.02466573 23.41583277 41.71874222 21.71875 43.41162109 C19.10820384 46.01676138 16.50310068 48.62726046 13.8984375 51.23828125 C12.24771682 52.88834201 10.59668643 54.53809301 8.9453125 56.1875 C8.16310333 56.9717334 7.38089417 57.7559668 6.57498169 58.56396484 C5.85688324 59.27891113 5.13878479 59.99385742 4.39892578 60.73046875 C3.44797531 61.68022583 3.44797531 61.68022583 2.47781372 62.64916992 C1 64 1 64 0 64 C0 42.88 0 21.76 0 0 Z " fill="#E30815" transform="translate(440,133)"/>
<path d="M0 0 C4.29 0 8.58 0 13 0 C13.02578125 2.02382812 13.0515625 4.04765625 13.078125 6.1328125 C13.11987024 8.10875373 13.161756 10.08469462 13.20751953 12.06054688 C13.23561623 13.42598164 13.25688677 14.79157564 13.27099609 16.15722656 C13.29257982 18.12854038 13.3413546 20.09949631 13.390625 22.0703125 C13.41157227 23.25383301 13.43251953 24.43735352 13.45410156 25.65673828 C14.1048541 29.64216103 15.50672395 31.85861218 18 35 C21.75098851 36.87549425 25.81907359 36.26242809 29.8125 35.375 C32.92275125 33.41998493 33.06485424 31.5058979 34 28 C34.21873234 25.76946605 34.35240054 23.52944714 34.4140625 21.2890625 C34.45273438 20.04511719 34.49140625 18.80117187 34.53125 17.51953125 C34.5621875 16.23433594 34.593125 14.94914062 34.625 13.625 C34.66367188 12.31660156 34.70234375 11.00820312 34.7421875 9.66015625 C34.83619703 6.44032972 34.91917635 3.2201845 35 0 C39.29 0 43.58 0 48 0 C48 16.5 48 33 48 50 C43.71 50 39.42 50 35 50 C35 49.34 35 48.68 35 48 C33.6078125 48.495 33.6078125 48.495 32.1875 49 C25.39850348 50.87897479 18.59055991 51.20692883 12.1875 48 C5.18014493 43.55447367 1.9528096 37.93783294 0 30 C-0.22705078 26.45141602 -0.22705078 26.45141602 -0.1953125 22.75390625 C-0.1924826 22.09792953 -0.18965271 21.44195282 -0.18673706 20.76609802 C-0.17565984 18.69803591 -0.15058063 16.63042827 -0.125 14.5625 C-0.11495402 13.14909485 -0.10583102 11.73568283 -0.09765625 10.32226562 C-0.07747405 6.88120009 -0.03830539 3.44110076 0 0 Z " fill="#030392" transform="translate(141,84)"/>
<path d="M0 0 C5.53321475 2.85821689 8.87498564 6.07027659 11.234375 11.96875 C12.01499759 18.60404202 11.74627585 23.13234499 8.484375 29.09375 C4.76297632 33.51919707 0.98767859 36.61813594 -4.875 37.4140625 C-11.00403221 37.69265487 -14.59502078 36.76008256 -19.515625 33.09375 C-23.89530824 28.73736294 -26.79199602 24.54419009 -26.890625 18.28125 C-26.74001289 12.2479062 -25.02365716 8.6131823 -20.796875 4.3671875 C-14.69853951 -1.08513787 -7.95048248 -2.86414897 0 0 Z " fill="#FBFBFD" transform="translate(108.515625,81.90625)"/>
<path d="M0 0 C4.62 0 9.24 0 14 0 C14 21.45 14 42.9 14 65 C9.38 65 4.76 65 0 65 C0 43.55 0 22.1 0 0 Z " fill="#090995" transform="translate(251,68)"/>
<path d="M0 0 C4.62 0 9.24 0 14 0 C14 16.17 14 32.34 14 49 C9.38 49 4.76 49 0 49 C0 32.83 0 16.66 0 0 Z " fill="#090995" transform="translate(407,84)"/>
<path d="M0 0 C4.62 0 9.24 0 14 0 C14 16.17 14 32.34 14 49 C9.38 49 4.76 49 0 49 C0 32.83 0 16.66 0 0 Z " fill="#090995" transform="translate(272,84)"/>
<path d="M0 0 C10.23 0 20.46 0 31 0 C30.01 1.32 29.02 2.64 28 4 C27.64042111 6.35929642 27.64042111 6.35929642 27.8125 8.75 C27.83957031 9.54921875 27.86664063 10.3484375 27.89453125 11.171875 C27.94673828 12.07679688 27.94673828 12.07679688 28 13 C27.01 13.495 27.01 13.495 26 14 C26.66 14 27.32 14 28 14 C27.0022242 16.99332739 26.2477975 17.94766315 24 20 C25.98 19.67 27.96 19.34 30 19 C27.96091452 22.05862821 26.4238275 23.64951526 23 25 C20.43457031 25.22705078 20.43457031 25.22705078 17.578125 25.1953125 C16.65418945 25.19031738 15.73025391 25.18532227 14.77832031 25.18017578 C13.03180176 25.15286377 13.03180176 25.15286377 11.25 25.125 C7.5375 25.08375 3.825 25.0425 0 25 C0 16.75 0 8.5 0 0 Z " fill="#080894" transform="translate(68,247)"/>
<path d="M0 0 C8.58 0 17.16 0 26 0 C26.0309375 5.9090625 26.0309375 5.9090625 26.0625 11.9375 C26.071604 13.18136475 26.08070801 14.42522949 26.09008789 15.70678711 C26.09258545 16.6788208 26.09508301 17.65085449 26.09765625 18.65234375 C26.10551147 20.15269165 26.10551147 20.15269165 26.11352539 21.68334961 C26 24 26 24 25 25 C20.71443207 25.2538237 16.41719147 25.185229 12.125 25.1875 C10.30935547 25.20586914 10.30935547 25.20586914 8.45703125 25.22460938 C7.29816406 25.22654297 6.13929687 25.22847656 4.9453125 25.23046875 C3.87812988 25.23457764 2.81094727 25.23868652 1.71142578 25.24291992 C-1 25 -1 25 -4 23 C-3.67 21.35 -3.34 19.7 -3 18 C-1.35 17.67 0.3 17.34 2 17 C2 12.71 2 8.42 2 4 C1.01 3.67 0.02 3.34 -1 3 C-0.67 2.01 -0.34 1.02 0 0 Z " fill="#E4111E" transform="translate(110,247)"/>
<path d="M0 0 C4.11360231 3.44394612 5.53917569 4.69259472 6.0625 10.1875 C5.95024683 13.96902858 4.6518366 16.03563102 2.6875 19.25 C3.02083333 21.58333333 3.02083333 21.58333333 4.6875 23.25 C7.24269921 24.06171228 7.24269921 24.06171228 9.6875 24.25 C9.6875 25.9 9.6875 27.55 9.6875 29.25 C4.38735182 29.75477602 1.86784682 28.45817314 -2.3125 25.25 C-2.6425 24.92 -2.9725 24.59 -3.3125 24.25 C-4.89144904 23.95467805 -6.47592227 23.68862991 -8.0625 23.4375 C-12.45071968 22.58493161 -15.2129829 21.64009683 -18.3125 18.25 C-20.56090805 14.28851915 -20.86484064 10.74763095 -20.3125 6.25 C-15.76657444 -1.68273066 -8.11382073 -4.2865468 0 0 Z " fill="#0B0B0B" transform="translate(307.3125,247.75)"/>
<path d="M0 0 C4.12611421 1.74213711 6.73295974 4.13763511 9 8 C9.76554353 11.83480603 9.89263887 15.33468163 8.01171875 18.84375 C4.42839299 23.37005623 1.76968334 24.76791038 -3.8125 25.5 C-8.22361901 25.40913425 -10.4949332 23.51834181 -13.65234375 20.60546875 C-16.47572945 17.24195709 -16.32983555 13.40189406 -16.2890625 9.22265625 C-15.85785084 5.90698818 -14.38894284 4.25243182 -12 2 C-7.95154115 -0.69897256 -4.75041428 -0.53620196 0 0 Z " fill="#F9F9FC" transform="translate(321,96)"/>
<path d="M0 0 C2.70567626 1.82339052 4.53728718 3.07457436 6 6 C6.6326744 10.51910283 6.77294479 14.66253178 4.0625 18.5 C0.22009067 21.63666068 -3.06492085 22.44360262 -8 22 C-8.99 21.34 -9.98 20.68 -11 20 C-11.33 23.63 -11.66 27.26 -12 31 C-13.32 31 -14.64 31 -16 31 C-16 20.77 -16 10.54 -16 0 C-13.525 0.495 -13.525 0.495 -11 1 C-10.38125 0.67 -9.7625 0.34 -9.125 0 C-5.81706587 -1.55667489 -3.48395427 -0.85570807 0 0 Z " fill="#19199B" transform="translate(88,173)"/>
<path d="M0 0 C4.09206332 1.808121 6.69807584 4.16345973 9 8 C9.66861666 12.1454233 9.95469912 14.44075786 7.75390625 18.03515625 C4.36534205 22.15044494 2.18673684 23.70563158 -3.25 24.4375 C-8.23409112 23.8560227 -10.67351517 21.62718402 -14 18 C-15.63125565 14.7374887 -15.68851113 11.5120384 -15 8 C-11.02622012 1.59304414 -7.59384259 -0.51483679 0 0 Z " fill="#F7F7FB" transform="translate(222,97)"/>
<path d="M0 0 C4.16507424 1.7585869 6.20882468 3.85201505 8 8 C8.53715295 13.01342749 8.12527558 16.01257943 5 20 C1.99246705 23.17939197 0.44434039 23.9365228 -3.9375 24.5625 C-8.67783827 24.32055457 -10.77745216 22.3760025 -14 19 C-16.28218205 15.26552029 -16.3316964 12.51876536 -15.7265625 8.26171875 C-14.63629794 4.86783069 -12.86604295 3.12389725 -10.03515625 1.03125 C-6.41478185 -0.80325833 -4.02184281 -0.58381589 0 0 Z " fill="#F7F7FB" transform="translate(380,97)"/>
<path d="M0 0 C2.93423195 1.79646854 4.47205355 2.9441071 6 6 C6.54399285 10.539219 6.62289461 13.9544269 4.25 17.9375 C1.14683856 20.78206465 -0.68973926 21.82909642 -4.875 22.375 C-8.84487514 21.89861498 -10.89536536 20.46959574 -14 18 C-16.6790573 13.98141405 -16.69610694 10.72358279 -16 6 C-11.8902581 -0.57558704 -7.32074082 -0.86329491 0 0 Z " fill="#101098" transform="translate(130,173)"/>
<path d="M0 0 C10 0 10 0 14 2 C15.4662333 4.93246659 14.97087389 7.67766743 14.83984375 10.90625 C14.78848226 13.22255979 14.78848226 13.22255979 17 15 C16.93049828 18.8225948 16.83828071 21.1337766 14.125 23.9375 C11 25 11 25 0 25 C0 16.75 0 8.5 0 0 Z " fill="#040404" transform="translate(237,246)"/>
<path d="M0 0 C7 0 7 0 8.71264648 1.37695312 C9.28607788 2.31958008 9.28607788 2.31958008 9.87109375 3.28125 C10.51401367 4.29638672 10.51401367 4.29638672 11.16992188 5.33203125 C11.58822266 6.04746094 12.00652344 6.76289063 12.4375 7.5 C12.88287109 8.21542969 13.32824219 8.93085938 13.78710938 9.66796875 C14.88054585 11.43157596 15.94334866 13.2141104 17 15 C17.33 10.05 17.66 5.1 18 0 C19.65 0 21.3 0 23 0 C23 8.25 23 16.5 23 25 C16 25 16 25 14.28735352 23.53125 C13.90506592 22.8609375 13.52277832 22.190625 13.12890625 21.5 C12.48598633 20.4171875 12.48598633 20.4171875 11.83007812 19.3125 C11.41177734 18.549375 10.99347656 17.78625 10.5625 17 C10.11712891 16.236875 9.67175781 15.47375 9.21289062 14.6875 C8.11868055 12.80498805 7.05618414 10.90410662 6 9 C5.67 14.28 5.34 19.56 5 25 C3.35 25 1.7 25 0 25 C0 16.75 0 8.5 0 0 Z " fill="#020202" transform="translate(441,246)"/>
<path d="M0 0 C11.28 0 11.28 0 15 3 C16 4 16 4 16.1875 7.25 C16 11 16 11 14.80859375 13.43359375 C13.67919372 16.02081416 13.67919372 16.02081416 15.1171875 18.45703125 C15.69726562 19.23433594 16.27734375 20.01164062 16.875 20.8125 C17.44992187 21.60269531 18.02484375 22.39289063 18.6171875 23.20703125 C19.07351563 23.79871094 19.52984375 24.39039063 20 25 C17.375 25.5 17.375 25.5 14 25 C11.5736254 22.60641425 9.67802863 19.96332716 8 17 C8 16.34 8 15.68 8 15 C7.01 15 6.02 15 5 15 C5 18.3 5 21.6 5 25 C3.35 25 1.7 25 0 25 C0 16.75 0 8.5 0 0 Z " fill="#040404" transform="translate(391,246)"/>
<path d="M0 0 C11.28 0 11.28 0 15 3 C16 4 16 4 16.1875 7.25 C16 11 16 11 14.80859375 13.43359375 C13.67919372 16.02081416 13.67919372 16.02081416 15.1171875 18.45703125 C15.69726562 19.23433594 16.27734375 20.01164062 16.875 20.8125 C17.44992188 21.60269531 18.02484375 22.39289063 18.6171875 23.20703125 C19.07351562 23.79871094 19.52984375 24.39039063 20 25 C17.375 25.5 17.375 25.5 14 25 C11.5736254 22.60641425 9.67802863 19.96332716 8 17 C8 16.34 8 15.68 8 15 C7.01 15 6.02 15 5 15 C5 18.3 5 21.6 5 25 C3.35 25 1.7 25 0 25 C0 16.75 0 8.5 0 0 Z " fill="#040404" transform="translate(147,246)"/>
<path d="M0 0 C2.31 0 4.62 0 7 0 C16 21.1352459 16 21.1352459 16 25 C14.02 25 12.04 25 10 25 C9.67 23.02 9.34 21.04 9 19 C5.37 19 1.74 19 -2 19 C-2.33 20.98 -2.66 22.96 -3 25 C-4.98 25 -6.96 25 -9 25 C-7.87685891 21.77018378 -6.75115766 18.54126553 -5.625 15.3125 C-5.14933594 13.94448242 -5.14933594 13.94448242 -4.6640625 12.54882812 C-4.3546875 11.66259766 -4.0453125 10.77636719 -3.7265625 9.86328125 C-3.44377441 9.05157471 -3.16098633 8.23986816 -2.86962891 7.40356445 C-1.96803802 4.91166039 -0.99728271 2.45499672 0 0 Z " fill="#0A0A0A" transform="translate(501,246)"/>
<path d="M0 0 C2.31 0 4.62 0 7 0 C16 21.1352459 16 21.1352459 16 25 C14.02 25 12.04 25 10 25 C9.67 23.02 9.34 21.04 9 19 C5.37 19 1.74 19 -2 19 C-2.33 20.98 -2.66 22.96 -3 25 C-4.98 25 -6.96 25 -9 25 C-7.87685891 21.77018378 -6.75115766 18.54126553 -5.625 15.3125 C-5.14933594 13.94448242 -5.14933594 13.94448242 -4.6640625 12.54882812 C-4.3546875 11.66259766 -4.0453125 10.77636719 -3.7265625 9.86328125 C-3.44377441 9.05157471 -3.16098633 8.23986816 -2.86962891 7.40356445 C-1.96803802 4.91166039 -0.99728271 2.45499672 0 0 Z " fill="#0A0A0A" transform="translate(421,246)"/>
<path d="M0 0 C12.4 0 12.4 0 16 3 C17 4 17 4 17.3125 7.3125 C17 11 17 11 15.5 13.4375 C11.86353539 15.71029038 9.24217465 15.28281164 5 15 C5 18.3 5 21.6 5 25 C3.35 25 1.7 25 0 25 C0 16.75 0 8.5 0 0 Z " fill="#020202" transform="translate(190,246)"/>
<path d="M0 0 C3.1785625 2.43464362 4.82625355 3.72585938 5.375 7.75 C5 10 5 10 4 11 C1.46950598 11.07313567 -1.03304837 11.09247527 -3.5625 11.0625 C-4.27341797 11.05798828 -4.98433594 11.05347656 -5.71679688 11.04882812 C-7.47790013 11.03700864 -9.23896036 11.01907263 -11 11 C-9.88145414 14.72614153 -9.88145414 14.72614153 -7 17 C-1.67032792 17.34092041 -1.67032792 17.34092041 3 15 C3.66 15.99 4.32 16.98 5 18 C2.16586354 20.74825354 0.51743527 21.92473669 -3.4375 22.5 C-7.62737021 21.91194804 -9.73951177 20.65388577 -13 18 C-15.68408645 13.97387033 -15.80610406 10.73183082 -15 6 C-11.46291036 -0.57082421 -7.00779519 -1.69153677 0 0 Z " fill="#17179B" transform="translate(316,173)"/>
<path d="M0 0 C3.5 1.875 3.5 1.875 6 4 C6 4.66 6 5.32 6 6 C4.02 6.99 4.02 6.99 2 8 C1.01 7.34 0.02 6.68 -1 6 C-5.84707318 5.410255 -5.84707318 5.410255 -10 7.5625 C-11.41970326 11.02302669 -10.86301515 13.41516784 -10 17 C-8.01364621 19.43442418 -8.01364621 19.43442418 -4.125 19.1875 C-1.28539226 19.120382 1.28516905 18.90494365 4 18 C4.66 18.99 5.32 19.98 6 21 C5.37351562 21.39832031 4.74703125 21.79664063 4.1015625 22.20703125 C2.87566406 23.00173828 2.87566406 23.00173828 1.625 23.8125 C0.40683594 24.59560547 0.40683594 24.59560547 -0.8359375 25.39453125 C-3.23350241 26.98437197 -3.23350241 26.98437197 -5 30 C-6.32 30 -7.64 30 -9 30 C-8.67 28.68 -8.34 27.36 -8 26 C-8.56589844 25.51789063 -9.13179688 25.03578125 -9.71484375 24.5390625 C-10.44832031 23.90742188 -11.18179687 23.27578125 -11.9375 22.625 C-12.66839844 21.99851562 -13.39929688 21.37203125 -14.15234375 20.7265625 C-16.92468235 18.13592051 -16.98673328 17.15920061 -17.3125 13.25 C-17.24840363 8.83536244 -15.90882494 6.38052628 -13 3 C-9.06515044 -0.2790413 -4.98222416 -0.90321023 0 0 Z " fill="#0D0D0D" transform="translate(485,246)"/>
<path d="M0 0 C2.625 2.125 2.625 2.125 4 5 C4 6.98 4 8.96 4 11 C-1.28 11 -6.56 11 -12 11 C-10.02 13.97 -10.02 13.97 -8 17 C-4.10346033 17.48706746 -0.73778068 17.19608982 3 16 C3 17.32 3 18.64 3 20 C-0.66762608 22.34728069 -3.71698615 22.4430704 -8 22 C-11.42802709 20.25364658 -13.43945567 18.96821293 -15.375 15.625 C-16.52655803 10.78845627 -16.62387092 8.10217196 -14.125 3.6875 C-10.36277953 -1.07060236 -5.74919328 -0.81601453 0 0 Z " fill="#15159A" transform="translate(415,173)"/>
<path d="M0 0 C3.125 2.125 3.125 2.125 5 5 C5 6.98 5 8.96 5 11 C-0.28 11 -5.56 11 -11 11 C-9.66436384 15.94463635 -9.66436384 15.94463635 -7 17 C-1.67032792 17.34092041 -1.67032792 17.34092041 3 15 C3.99 16.485 3.99 16.485 5 18 C2.16586354 20.74825354 0.51743527 21.92473669 -3.4375 22.5 C-8.23094905 21.82723522 -11.36491589 20.08101614 -14.375 16.25 C-15.87641613 10.84490192 -15.73067132 7.3639198 -13.125 2.5 C-9.50030347 -1.28004066 -4.85400989 -1.0583333 0 0 Z " fill="#141499" transform="translate(178,173)"/>
<path d="M0 0 C1.65 0 3.3 0 5 0 C5.06058594 1.28777344 5.12117188 2.57554687 5.18359375 3.90234375 C5.26798247 5.58074159 5.3526313 7.25912636 5.4375 8.9375 C5.47681641 9.78763672 5.51613281 10.63777344 5.55664062 11.51367188 C5.59853516 12.32255859 5.64042969 13.13144531 5.68359375 13.96484375 C5.72025146 14.7137085 5.75690918 15.46257324 5.79467773 16.23413086 C5.81771063 18.02461326 5.81771063 18.02461326 7 19 C9.5 19.16666667 9.5 19.16666667 12 19 C13.51421001 17.48578999 13.21309856 16.07527232 13.31640625 13.96484375 C13.35830078 13.15595703 13.40019531 12.34707031 13.44335938 11.51367188 C13.50233398 10.2384668 13.50233398 10.2384668 13.5625 8.9375 C13.60568359 8.08349609 13.64886719 7.22949219 13.69335938 6.34960938 C13.79976702 4.23327963 13.90041731 2.11666187 14 0 C15.65 0 17.3 0 19 0 C19.08120751 2.89640118 19.14059421 5.79050912 19.1875 8.6875 C19.21263672 9.50412109 19.23777344 10.32074219 19.26367188 11.16210938 C19.32191481 15.95744409 19.12228027 19.10095732 16 23 C12.79062591 25.32402951 9.88493979 25.47570691 6 25 C2.66238955 22.84909549 1.26529067 21.79587201 0 18 C-0.08021999 16.59175107 -0.10765977 15.18002769 -0.09765625 13.76953125 C-0.09282227 12.56586914 -0.09282227 12.56586914 -0.08789062 11.33789062 C-0.07951172 10.50451172 -0.07113281 9.67113281 -0.0625 8.8125 C-0.05798828 7.96751953 -0.05347656 7.12253906 -0.04882812 6.25195312 C-0.03705403 4.16793845 -0.0191189 2.08396023 0 0 Z " fill="#030303" transform="translate(318,246)"/>
<path d="M0 0 C1.65 0 3.3 0 5 0 C5.06058594 1.28777344 5.12117187 2.57554687 5.18359375 3.90234375 C5.26798247 5.58074159 5.3526313 7.25912636 5.4375 8.9375 C5.47681641 9.78763672 5.51613281 10.63777344 5.55664062 11.51367188 C5.59853516 12.32255859 5.64042969 13.13144531 5.68359375 13.96484375 C5.72025146 14.7137085 5.75690918 15.46257324 5.79467773 16.23413086 C5.81771063 18.02461326 5.81771063 18.02461326 7 19 C9.5 19.16666667 9.5 19.16666667 12 19 C13.51421001 17.48578999 13.21309856 16.07527232 13.31640625 13.96484375 C13.35830078 13.15595703 13.40019531 12.34707031 13.44335938 11.51367188 C13.50233398 10.2384668 13.50233398 10.2384668 13.5625 8.9375 C13.60568359 8.08349609 13.64886719 7.22949219 13.69335938 6.34960938 C13.79976702 4.23327963 13.90041731 2.11666187 14 0 C15.65 0 17.3 0 19 0 C19.08120751 2.89640118 19.14059421 5.79050912 19.1875 8.6875 C19.21263672 9.50412109 19.23777344 10.32074219 19.26367188 11.16210938 C19.32191481 15.95744409 19.12228027 19.10095732 16 23 C12.79062591 25.32402951 9.88493979 25.47570691 6 25 C2.66238955 22.84909549 1.26529067 21.79587201 0 18 C-0.08021999 16.59175107 -0.10765977 15.18002769 -0.09765625 13.76953125 C-0.09282227 12.56586914 -0.09282227 12.56586914 -0.08789062 11.33789062 C-0.07951172 10.50451172 -0.07113281 9.67113281 -0.0625 8.8125 C-0.05798828 7.96751953 -0.05347656 7.12253906 -0.04882812 6.25195312 C-0.03705403 4.16793845 -0.0191189 2.08396023 0 0 Z " fill="#030303" transform="translate(211,246)"/>
<path d="M0 0 C2.4375 1.5 2.4375 1.5 4 3 C3.34 4.32 2.68 5.64 2 7 C-0.64 6.67 -3.28 6.34 -6 6 C-6 6.66 -6 7.32 -6 8 C-5.36191406 8.33773437 -4.72382812 8.67546875 -4.06640625 9.0234375 C-3.24011719 9.46945313 -2.41382813 9.91546875 -1.5625 10.375 C-0.73878906 10.81585938 0.08492187 11.25671875 0.93359375 11.7109375 C3 13 3 13 4 15 C4.375 17.875 4.375 17.875 4 21 C1.24351712 24.1741318 -0.38022598 24.9238874 -4.5625 25.4375 C-8.07967359 24.98985972 -9.4837345 24.41561488 -12 22 C-11.34 20.68 -10.68 19.36 -10 18 C-7.36 18.33 -4.72 18.66 -2 19 C-3.19272248 15.42183257 -3.7871013 15.37939862 -7 13.75 C-10.36394894 11.74375298 -10.88477255 11.31276022 -12.3125 7.4375 C-12 4 -12 4 -10 1.5625 C-6.31700787 -0.35572507 -4.10348694 -0.52226197 0 0 Z " fill="#0E0E0E" transform="translate(544,246)"/>
<path d="M0 0 C4.62 0 9.24 0 14 0 C14 1.32 14 2.64 14 4 C11.03 4 8.06 4 5 4 C5 6.31 5 8.62 5 11 C7.64 11 10.28 11 13 11 C13 12.32 13 13.64 13 15 C10.36 15 7.72 15 5 15 C5 16.98 5 18.96 5 21 C7.97 21 10.94 21 14 21 C14 22.32 14 23.64 14 25 C9.38 25 4.76 25 0 25 C0 16.75 0 8.5 0 0 Z " fill="#000000" transform="translate(553,246)"/>
<path d="M0 0 C4.62 0 9.24 0 14 0 C14 1.32 14 2.64 14 4 C11.03 4 8.06 4 5 4 C5 6.31 5 8.62 5 11 C7.64 11 10.28 11 13 11 C13 12.32 13 13.64 13 15 C10.36 15 7.72 15 5 15 C5 16.98 5 18.96 5 21 C7.97 21 10.94 21 14 21 C14 22.32 14 23.64 14 25 C9.38 25 4.76 25 0 25 C0 16.75 0 8.5 0 0 Z " fill="#000000" transform="translate(343,246)"/>
<path d="M0 0 C4.62 0 9.24 0 14 0 C14 1.32 14 2.64 14 4 C11.03 4 8.06 4 5 4 C5 6.31 5 8.62 5 11 C7.64 11 10.28 11 13 11 C13 12.32 13 13.64 13 15 C10.36 15 7.72 15 5 15 C5 16.98 5 18.96 5 21 C7.97 21 10.94 21 14 21 C14 22.32 14 23.64 14 25 C9.38 25 4.76 25 0 25 C0 16.75 0 8.5 0 0 Z " fill="#000000" transform="translate(170,246)"/>
<path d="M0 0 C2.9375 1.625 2.9375 1.625 5 4 C5.625 6.9375 5.625 6.9375 5 10 C2.36788535 13.66900829 0.91145674 14.84009531 -3.5625 15.625 C-7 15 -7 15 -9.5 12.9375 C-11.45640324 9.10621033 -11.13891039 7.1000774 -10 3 C-7.66720907 -1.01758438 -4.2700133 -0.51534643 0 0 Z " fill="#F6F6F6" transform="translate(303,251)"/>
<path d="M0 0 C4.62 0 9.24 0 14 0 C14 1.32 14 2.64 14 4 C11.03 4 8.06 4 5 4 C5 6.31 5 8.62 5 11 C7.64 11 10.28 11 13 11 C13 12.32 13 13.64 13 15 C10.36 15 7.72 15 5 15 C5 18.3 5 21.6 5 25 C3.35 25 1.7 25 0 25 C0 16.75 0 8.5 0 0 Z " fill="#000000" transform="translate(373,246)"/>
<path d="M0 0 C1.32 0 2.64 0 4 0 C4.06058594 1.05960938 4.12117187 2.11921875 4.18359375 3.2109375 C4.26800127 4.59897221 4.35264917 5.98699232 4.4375 7.375 C4.47681641 8.07367188 4.51613281 8.77234375 4.55664062 9.4921875 C4.74280134 13.37360492 4.74280134 13.37360492 6 17 C8.91652174 17.16681109 8.91652174 17.16681109 12 17 C14.84614024 14.15385976 14.45579076 11.19630858 14.625 7.375 C14.68300781 6.31539062 14.68300781 6.31539062 14.7421875 5.234375 C14.83647724 3.49001476 14.91932891 1.74504309 15 0 C16.32 0 17.64 0 19 0 C19.57042254 14.04929577 19.57042254 14.04929577 16 20 C12.2626144 22.4915904 10.42668417 22.45793285 6 22 C3.24670979 20.20437595 1.47372539 18.94745078 0 16 C-0.07181821 13.28239892 -0.09299506 10.59140612 -0.0625 7.875 C-0.05798828 7.12089844 -0.05347656 6.36679688 -0.04882812 5.58984375 C-0.03703499 3.72652873 -0.01909942 1.86325445 0 0 Z " fill="#18189B" transform="translate(225,173)"/>
<path d="M0 0 C2.375 1.5625 2.375 1.5625 4 4 C4.56783945 7.97487617 4.62340519 10.06489221 2.375 13.4375 C-0.69817115 15.45932313 -2.38247881 15.52755517 -6 15 C-8.375 14.0625 -8.375 14.0625 -10 12 C-10.56536134 8.90205063 -10.56536134 6.09794937 -10 3 C-7.26135833 -0.47596827 -4.2407782 -0.61844682 0 0 Z " fill="#F4F4FA" transform="translate(86,176)"/>
<path d="M0 0 C2.5 2.0625 2.5 2.0625 4 5 C4.125 8.625 4.125 8.625 3 12 C0.3125 14.0625 0.3125 14.0625 -3 15 C-6.56650118 14.24554783 -8.41993723 13.58006277 -11 11 C-11.42834085 7.14493238 -11.55897202 4.87199635 -9.4375 1.5625 C-6.03280512 -0.61999672 -3.96569988 -0.63734462 0 0 Z " fill="#080894" transform="translate(418,68)"/>
<path d="M0 0 C2.5 2.0625 2.5 2.0625 4 5 C4.125 8.625 4.125 8.625 3 12 C0.3125 14.0625 0.3125 14.0625 -3 15 C-6.56650118 14.24554783 -8.41993723 13.58006277 -11 11 C-11.42834085 7.14493238 -11.55897202 4.87199635 -9.4375 1.5625 C-6.03280512 -0.61999672 -3.96569988 -0.63734462 0 0 Z " fill="#080894" transform="translate(283,68)"/>
<path d="M0 0 C0.99 0.66 1.98 1.32 3 2 C3 2.99 3 3.98 3 5 C2.01 5.33 1.02 5.66 0 6 C-0.66 5.34 -1.32 4.68 -2 4 C-5.07108055 3.6732893 -7.15050101 3.51861724 -9.875 5.0625 C-11.64273274 8.1069286 -11.36823916 10.5631012 -11 14 C-10.01951062 16.06402685 -10.01951062 16.06402685 -8 17 C-4.16297089 17.33365471 -0.73645825 16.87916665 3 16 C2.66411682 18.51912388 2.42645046 19.67196119 0.375 21.25 C-3.00379216 22.316987 -5.46884664 22.42617368 -9 22 C-11.97239241 20.21523759 -14.42604027 18.14791945 -16 15 C-16.67484264 10.17969543 -16.41391721 6.81356142 -14.1875 2.4375 C-10.45507313 -1.4455147 -4.96458594 -0.79925223 0 0 Z " fill="#121299" transform="translate(295,173)"/>
<path d="M0 0 C2.375 1.5625 2.375 1.5625 4 4 C4.56783945 7.97487617 4.62340519 10.06489221 2.375 13.4375 C-0.71685231 15.47161336 -2.36367425 15.60605429 -6 15 C-8.375 13.4375 -8.375 13.4375 -10 11 C-10.56783945 7.02512383 -10.62340519 4.93510779 -8.375 1.5625 C-5.28314769 -0.47161336 -3.63632575 -0.60605429 0 0 Z " fill="#F8F8FC" transform="translate(128,176)"/>
<path d="M0 0 C0.66 0.99 1.32 1.98 2 3 C1.67 3.66 1.34 4.32 1 5 C-1.31 4.67 -3.62 4.34 -6 4 C-6.33 5.98 -6.66 7.96 -7 10 C-4.69 10 -2.38 10 0 10 C0 10.99 0 11.98 0 13 C-2.31 13 -4.62 13 -7 13 C-7 18.94 -7 24.88 -7 31 C-8.32 31 -9.64 31 -11 31 C-11 25.06 -11 19.12 -11 13 C-11.99 13 -12.98 13 -14 13 C-14 12.01 -14 11.02 -14 10 C-12.68 10 -11.36 10 -10 10 C-10.0825 8.906875 -10.165 7.81375 -10.25 6.6875 C-10 3 -10 3 -8.375 1.0625 C-5.35429678 -0.28886723 -3.27337643 -0.42696214 0 0 Z " fill="#18189B" transform="translate(385,163)"/>
<path d="M0 0 C0.99 0.66 1.98 1.32 3 2 C3 2.99 3 3.98 3 5 C2.01 5.33 1.02 5.66 0 6 C-0.99 5.34 -1.98 4.68 -3 4 C-6.63939932 4.31730524 -6.63939932 4.31730524 -10 5 C-11.81937096 9.30370705 -11.81937096 9.30370705 -11.1875 13.8125 C-10.18088437 15.91381174 -10.18088437 15.91381174 -9 17 C-3.67326964 17.33856828 -3.67326964 17.33856828 1 15 C1.66 16.32 2.32 17.64 3 19 C-1.09480913 21.978043 -3.96541959 22.70660778 -9 22 C-11.96922861 20.20650621 -14.42452071 18.15095858 -16 15 C-16.67484264 10.17969543 -16.41391721 6.81356142 -14.1875 2.4375 C-10.45507313 -1.4455147 -4.96458594 -0.79925223 0 0 Z " fill="#111198" transform="translate(157,173)"/>
<path d="M0 0 C1.65 0 3.3 0 5 0 C5 6.6 5 13.2 5 20 C7.97 20 10.94 20 14 20 C14 21.65 14 23.3 14 25 C9.38 25 4.76 25 0 25 C0 16.75 0 8.5 0 0 Z " fill="#030303" transform="translate(258,246)"/>
<path d="M0 0 C1.4375 2.0625 1.4375 2.0625 2 4 C-1 4 -4 4 -7 4 C-5.87716914 7.2562095 -5.04149584 7.97713495 -1.9375 9.6875 C-0.4834375 10.3371875 -0.4834375 10.3371875 1 11 C2 12 2 12 2.3125 15.375 C2 19 2 19 0.375 20.9375 C-2.67562315 22.30225246 -4.68743824 22.41407022 -8 22 C-10.375 20.5 -10.375 20.5 -12 19 C-11.505 17.515 -11.505 17.515 -11 16 C-6.545 16.99 -6.545 16.99 -2 18 C-2 16.35 -2 14.7 -2 13 C-3.11375 12.71125 -4.2275 12.4225 -5.375 12.125 C-9 11 -9 11 -11 9 C-11.6700702 2.85768985 -11.6700702 2.85768985 -9.4375 0 C-5.91805945 -1.44387305 -3.62200262 -1.00611184 0 0 Z " fill="#1B1B9C" transform="translate(199,173)"/>
<path d="M0 0 C1.4375 2.0625 1.4375 2.0625 2 4 C1.01 4.33 0.02 4.66 -1 5 C-1.33 4.67 -1.66 4.34 -2 4 C-3.66617115 3.95936168 -5.33388095 3.957279 -7 4 C-7 4.99 -7 5.98 -7 7 C-6.43410156 7.20753906 -5.86820313 7.41507813 -5.28515625 7.62890625 C-2.99100722 8.59252948 -1.01920832 9.54074021 1 11 C2.1875 14.5625 2.1875 14.5625 2 18 C1 19.875 1 19.875 -1 21 C-7.07399227 22.54610712 -7.07399227 22.54610712 -10.4375 20.5625 C-10.953125 20.046875 -11.46875 19.53125 -12 19 C-11.505 17.515 -11.505 17.515 -11 16 C-6.545 16.99 -6.545 16.99 -2 18 C-2.57442644 15.55721737 -2.57442644 15.55721737 -4 13 C-6.98352894 11.21620585 -6.98352894 11.21620585 -10 10 C-11 9 -11 9 -11.3125 5.625 C-11 2 -11 2 -9.4375 0 C-5.91805945 -1.44387305 -3.62200262 -1.00611184 0 0 Z " fill="#17179B" transform="translate(261,173)"/>
<path d="M0 0 C3.4375 0.6875 3.4375 0.6875 5.4375 1.6875 C5.1075 3.0075 4.7775 4.3275 4.4375 5.6875 C1.7975 5.0275 -0.8425 4.3675 -3.5625 3.6875 C-3.04343289 7.66456312 -3.04343289 7.66456312 -0.71484375 8.92578125 C0.01605469 9.28027344 0.74695313 9.63476562 1.5 10 C3.67578125 11.26171875 3.67578125 11.26171875 5.4375 12.6875 C6.1875 16.3125 6.1875 16.3125 5.4375 19.6875 C3.22524156 22.32519276 1.84364032 22.63673246 -1.5625 23.0625 C-4.83093543 22.65394557 -6.17473142 21.89159407 -8.5625 19.6875 C-8.0675 18.2025 -8.0675 18.2025 -7.5625 16.6875 C-4.5925 17.0175 -1.6225 17.3475 1.4375 17.6875 C1.4375 16.6975 1.4375 15.7075 1.4375 14.6875 C-0.29689821 13.25256893 -0.29689821 13.25256893 -2.5 12.0625 C-6.53718354 9.71281646 -6.53718354 9.71281646 -7.5625 8.6875 C-7.3125 5.25 -7.3125 5.25 -6.5625 1.6875 C-3.5625 -0.3125 -3.5625 -0.3125 0 0 Z " fill="#17179A" transform="translate(213.5625,172.3125)"/>
<path d="M0 0 C0.99 0 1.98 0 3 0 C3 1.65 3 3.3 3 5 C5.31 5 7.62 5 10 5 C10 5.99 10 6.98 10 8 C7.69 8 5.38 8 3 8 C3.33 12.29 3.66 16.58 4 21 C5.98 21.66 7.96 22.32 10 23 C10 23.99 10 24.98 10 26 C3.60344828 26.36206897 3.60344828 26.36206897 1.28125 24.96875 C-0.69717729 21.92872758 -0.31481877 18.80886916 -0.1875 15.3125 C-0.16719727 14.2596582 -0.16719727 14.2596582 -0.14648438 13.18554688 C-0.11120182 11.45670171 -0.05739583 9.72825235 0 8 C-1.32 8 -2.64 8 -4 8 C-4 7.01 -4 6.02 -4 5 C-2.68 5 -1.36 5 0 5 C0 3.35 0 1.7 0 0 Z " fill="#060693" transform="translate(346,168)"/>
<path d="M0 0 C1.65 0 3.3 0 5 0 C5 8.25 5 16.5 5 25 C3.35 25 1.7 25 0 25 C0 16.75 0 8.5 0 0 Z " fill="#000000" transform="translate(521,246)"/>
<path d="M0 0 C1.65 0 3.3 0 5 0 C5 8.25 5 16.5 5 25 C3.35 25 1.7 25 0 25 C0 16.75 0 8.5 0 0 Z " fill="#000000" transform="translate(277,246)"/>
<path d="M0 0 C3.63 0 7.26 0 11 0 C11 1.32 11 2.64 11 4 C9.02 4.66 7.04 5.32 5 6 C4.67 10.95 4.34 15.9 4 21 C2.68 21 1.36 21 0 21 C0 14.07 0 7.14 0 0 Z " fill="#111198" transform="translate(100,173)"/>
<path d="M0 0 C0.99 0 1.98 0 3 0 C3 0.66 3 1.32 3 2 C3.99 1.34 4.98 0.68 6 0 C8.6875 -0.125 8.6875 -0.125 11 0 C11 1.32 11 2.64 11 4 C9.02 4.66 7.04 5.32 5 6 C4.67 10.95 4.34 15.9 4 21 C2.68 21 1.36 21 0 21 C0 14.07 0 7.14 0 0 Z " fill="#17179B" transform="translate(327,173)"/>
<path d="M0 0 C1.32 0 2.64 0 4 0 C4 6.93 4 13.86 4 21 C2.68 21 1.36 21 0 21 C0 14.07 0 7.14 0 0 Z " fill="#22229F" transform="translate(390,173)"/>
<path d="M0 0 C1.32 0 2.64 0 4 0 C4 6.93 4 13.86 4 21 C2.68 21 1.36 21 0 21 C0 14.07 0 7.14 0 0 Z " fill="#121298" transform="translate(362,173)"/>
<path d="M0 0 C1.134375 0.020625 2.26875 0.04125 3.4375 0.0625 C4.0975 1.7125 4.7575 3.3625 5.4375 5.0625 C1.4775 5.0625 -2.4825 5.0625 -6.5625 5.0625 C-4.06692478 0.07134956 -4.06692478 0.07134956 0 0 Z " fill="#E4E4F3" transform="translate(311.5625,175.9375)"/>
<path d="M0 0 C3.5625 0.1875 3.5625 0.1875 5.5625 2.1875 C5.5625 3.1775 5.5625 4.1675 5.5625 5.1875 C1.9325 5.1875 -1.6975 5.1875 -5.4375 5.1875 C-4.19786866 0.22897465 -4.19786866 0.22897465 0 0 Z " fill="#E7E7F4" transform="translate(409.4375,175.8125)"/>
<path d="M0 0 C3.125 0.25 3.125 0.25 5 1.625 C6.125 3.25 6.125 3.25 6.125 5.25 C2.165 5.25 -1.795 5.25 -5.875 5.25 C-3.39772727 0.29545455 -3.39772727 0.29545455 0 0 Z " fill="#E5E5F4" transform="translate(172.875,175.75)"/>
<path d="M0 0 C2.375 -0.125 2.375 -0.125 5 0 C5.66 0.66 6.32 1.32 7 2 C6.625 4.625 6.625 4.625 6 7 C4.02 7 2.04 7 0 7 C0 4.69 0 2.38 0 0 Z " fill="#E6E6E6" transform="translate(195,250)"/>
<path d="M0 0 C2.375 -0.125 2.375 -0.125 5 0 C5.66 0.66 6.32 1.32 7 2 C6.46428571 5.53571429 6.46428571 5.53571429 5 7 C3.33382885 7.04063832 1.66611905 7.042721 0 7 C0 4.69 0 2.38 0 0 Z " fill="#D5D5D5" transform="translate(242,260)"/>
<path d="M0 0 C2.475 0.495 2.475 0.495 5 1 C5.38218767 2.65614657 5.71395102 4.32457024 6 6 C5 7 5 7 2.4375 7.0625 C1.2309375 7.0315625 1.2309375 7.0315625 0 7 C0 4.69 0 2.38 0 0 Z " fill="#E6E6E6" transform="translate(396,250)"/>
<path d="M0 0 C2.475 0.495 2.475 0.495 5 1 C5.38218767 2.65614657 5.71395102 4.32457024 6 6 C5 7 5 7 2.4375 7.0625 C1.2309375 7.0315625 1.2309375 7.0315625 0 7 C0 4.69 0 2.38 0 0 Z " fill="#E6E6E6" transform="translate(152,250)"/>
<path d="M0 0 C2.6855594 2.6855594 3.06049974 5.37621328 4 9 C2.02 9 0.04 9 -2 9 C-1.125 2.25 -1.125 2.25 0 0 Z " fill="#D5D5D5" transform="translate(504,252)"/>
<path d="M0 0 C2.6855594 2.6855594 3.06049974 5.37621328 4 9 C2.02 9 0.04 9 -2 9 C-1.125 2.25 -1.125 2.25 0 0 Z " fill="#D5D5D5" transform="translate(424,252)"/>
<path d="M0 0 C2.475 0.495 2.475 0.495 5 1 C4.67 2.65 4.34 4.3 4 6 C2.68 6 1.36 6 0 6 C0 4.02 0 2.04 0 0 Z " fill="#DDDDDD" transform="translate(242,250)"/>
<path d="M0 0 C1.32 0 2.64 0 4 0 C2.92598892 2.91517292 2.22189824 4.77810176 0 7 C-2.125 6.625 -2.125 6.625 -4 6 C-2.25 3 -2.25 3 0 0 Z " fill="#18189B" transform="translate(412,163)"/>
<path d="M0 0 C3.1875 -0.3125 3.1875 -0.3125 6 0 C4.3125 2.5 4.3125 2.5 2 5 C-0.75 5.3125 -0.75 5.3125 -3 5 C-1.875 2.5 -1.875 2.5 0 0 Z " fill="#202020" transform="translate(178,240)"/>
<path d="M0 0 C-0.33 1.32 -0.66 2.64 -1 4 C-2.65 4 -4.3 4 -6 4 C-6 2.68 -6 1.36 -6 0 C-3.50907189 -1.24546405 -2.58919267 -0.7767578 0 0 Z " fill="#7A7AC5" transform="translate(93,260)"/>
<path d="M0 0 C1.98 0.495 1.98 0.495 4 1 C4 2.32 4 3.64 4 5 C2.35 4.67 0.7 4.34 -1 4 C-0.67 2.68 -0.34 1.36 0 0 Z " fill="#1C1C9D" transform="translate(362,163)"/>
<path d="M0 0 C1.98 0.495 1.98 0.495 4 1 C3.67 2.32 3.34 3.64 3 5 C1.68 4.67 0.36 4.34 -1 4 C-0.67 2.68 -0.34 1.36 0 0 Z " fill="#0E0E97" transform="translate(390,163)"/>
<path d="M0 0 C2.97 0.495 2.97 0.495 6 1 C2.81237635 3.12508244 0.73487777 3.5020163 -3 4 C-2.01 2.68 -1.02 1.36 0 0 Z " fill="#8E8ECE" transform="translate(93,264)"/>
</svg>
