<?xml version="1.0" standalone="no"?>
<!DOCTYPE svg PUBLIC "-//W3C//DTD SVG 20010904//EN"
 "http://www.w3.org/TR/2001/REC-SVG-20010904/DTD/svg10.dtd">
<svg version="1.0" xmlns="http://www.w3.org/2000/svg"
 width="2048.000000pt" height="2048.000000pt" viewBox="0 0 2048.000000 2048.000000"
 preserveAspectRatio="xMidYMid meet">

<g transform="translate(0.000000,2048.000000) scale(0.100000,-0.100000)"
fill="#000000" stroke="none">
<path d="M7433 18328 c-95 -8 -227 -50 -310 -99 -66 -40 -189 -152 -237 -218
-44 -59 -99 -170 -122 -246 -18 -57 -19 -109 -19 -915 l0 -855 30 -53 c95
-173 295 -195 410 -45 66 87 65 68 65 867 0 397 5 754 10 793 17 132 70 202
181 240 52 17 160 18 2744 21 1756 2 2719 -1 2773 -7 103 -13 172 -47 213
-107 59 -86 59 -86 59 -910 0 -850 -3 -815 77 -904 128 -143 308 -113 399 67
l29 58 0 830 c0 939 4 886 -81 1061 -96 198 -285 347 -511 404 -80 21 -97 21
-2854 23 -1526 1 -2811 -1 -2856 -5z"/>
<path d="M1334 14770 c-258 -68 -503 -305 -559 -541 -13 -55 -15 -250 -15
-1440 0 -1338 1 -1378 20 -1455 52 -210 260 -496 516 -711 200 -169 562 -412
899 -605 410 -234 1219 -576 1850 -781 1321 -430 3022 -787 4310 -906 909 -85
2291 -104 3205 -45 698 44 1638 162 2300 288 1848 352 3433 863 4390 1416 69
40 141 81 160 92 167 97 536 351 702 483 286 228 489 486 575 730 l28 80 3
1382 c3 1543 6 1460 -67 1608 -96 193 -253 325 -466 392 l-90 28 -8845 2
c-8612 2 -8847 1 -8916 -17z m17666 -506 c115 -32 198 -127 218 -249 5 -27 8
-603 7 -1280 -2 -1140 -3 -1234 -19 -1289 -69 -232 -285 -457 -702 -729 -267
-174 -710 -403 -899 -465 -117 -38 -211 -80 -286 -127 -20 -13 -58 -27 -85
-30 -51 -8 -135 -38 -344 -124 -309 -128 -857 -313 -1185 -401 -136 -36 -237
-71 -306 -105 -77 -39 -180 -68 -653 -186 -310 -78 -848 -195 -1045 -228 -31
-6 -110 -19 -176 -31 -300 -52 -446 -70 -577 -70 -135 -1 -253 -12 -498 -49
-255 -39 -774 -83 -1180 -100 -280 -12 -1891 -6 -2110 8 -278 18 -533 39 -840
70 -157 17 -319 32 -360 36 -208 17 -379 39 -510 65 -175 34 -236 43 -497 70
-152 15 -218 26 -266 45 -99 37 -207 62 -372 86 -113 16 -160 27 -192 46 -29
17 -67 27 -135 34 -58 7 -175 34 -313 74 -223 64 -365 95 -443 95 -28 0 -65
11 -110 34 -79 39 -145 61 -342 115 -80 22 -204 60 -276 85 -71 25 -179 54
-240 64 -176 32 -431 124 -1049 380 -132 55 -287 121 -345 146 -153 68 -528
262 -650 336 -417 253 -577 368 -720 516 -142 148 -203 251 -230 389 -8 44
-10 401 -8 1310 3 1360 -1 1260 59 1351 33 48 89 87 155 108 43 13 1058 15
8758 15 7933 1 8715 0 8766 -15z"/>
<path d="M920 9213 c-50 -19 -101 -67 -127 -120 l-28 -58 0 -3150 0 -3150 24
-95 c47 -186 94 -247 270 -353 117 -70 182 -98 286 -124 67 -17 494 -18 8910
-18 8547 0 8842 1 8905 18 253 72 465 290 540 559 l21 73 -1 3107 c-1 3104 -1
3108 -21 3155 -31 72 -63 108 -121 137 -62 31 -142 35 -195 10 -50 -24 -119
-97 -137 -146 -15 -39 -17 -318 -19 -3098 -2 -2928 -3 -3057 -20 -3109 -25
-73 -93 -144 -160 -168 -50 -17 -401 -18 -8822 -18 l-8770 0 -40 22 c-55 29
-102 78 -128 132 l-22 46 -5 3075 c-5 2841 -6 3078 -22 3110 -25 54 -94 126
-141 149 -42 20 -140 28 -177 14z"/>
<path d="M8683 7250 c-170 -36 -240 -182 -162 -338 36 -73 97 -123 179 -145
54 -15 402 -39 805 -56 260 -11 1474 -5 1720 8 299 17 524 38 581 55 71 22
115 54 144 106 22 39 25 57 25 135 -1 98 -13 134 -63 180 -80 75 -295 82 -977
30 -328 -26 -698 -29 -1085 -11 -190 9 -430 21 -535 26 -321 15 -588 19 -632
10z"/>
</g>
</svg>
