<?xml version="1.0" standalone="no"?>
<!DOCTYPE svg PUBLIC "-//W3C//DTD SVG 20010904//EN"
 "http://www.w3.org/TR/2001/REC-SVG-20010904/DTD/svg10.dtd">
<svg version="1.0" xmlns="http://www.w3.org/2000/svg"
 width="940.000000pt" height="788.000000pt" viewBox="0 0 940.000000 788.000000"
 preserveAspectRatio="xMidYMid meet">

<g transform="translate(0.000000,788.000000) scale(0.100000,-0.100000)"
fill="#000000" stroke="none">
<path d="M3725 5499 c-31 -17 -565 -551 -581 -581 -20 -39 -18 -117 5 -153 11
-16 485 -496 1053 -1066 l1033 -1037 318 -93 319 -94 -1359 -5 c-747 -3 -1364
-9 -1370 -13 -16 -10 -17 -59 -1 -75 9 -9 368 -12 1554 -12 848 0 1549 3 1558
6 36 14 18 87 -135 555 l-151 464 -1031 1035 c-567 569 -1044 1045 -1061 1058
-33 24 -115 30 -151 11z m269 -259 l171 -170 -298 -297 -297 -298 -175 176
c-104 104 -175 183 -175 194 0 12 107 127 272 292 234 235 277 273 302 273 25
0 57 -27 200 -170z m1035 -1044 l794 -794 -76 -17 c-42 -9 -81 -15 -87 -13 -6
2 -352 345 -770 763 l-760 760 47 47 c26 27 50 48 53 48 3 0 362 -357 799
-794z m-201 -140 l762 -764 0 -116 0 -117 -114 3 -114 3 -771 760 -772 759
118 118 c65 65 120 118 123 118 4 0 349 -344 768 -764z m-307 -301 c420 -415
765 -760 766 -767 2 -7 -10 -53 -25 -102 l-27 -89 -798 804 -797 803 52 53
c29 29 55 53 58 53 4 0 350 -340 771 -755z m1504 -853 c70 -216 125 -395 122
-399 -6 -5 -804 231 -815 241 -3 4 7 52 24 109 l29 102 141 3 c101 2 145 6
153 15 6 8 12 74 13 157 l3 144 95 21 c64 14 97 18 101 10 4 -5 64 -187 134
-403z"/>
</g>
</svg>
