<?xml version="1.0" standalone="no"?>
<!DOCTYPE svg PUBLIC "-//W3C//DTD SVG 20010904//EN"
 "http://www.w3.org/TR/2001/REC-SVG-20010904/DTD/svg10.dtd">
<svg version="1.0" xmlns="http://www.w3.org/2000/svg"
 width="1920.000000pt" height="1920.000000pt" viewBox="0 0 1920.000000 1920.000000"
 preserveAspectRatio="xMidYMid meet">

<g transform="translate(0.000000,1920.000000) scale(0.100000,-0.100000)"
fill="#000000" stroke="none">
<path d="M7505 17440 l-100 -100 4321 -4323 c2376 -2377 4354 -4360 4396
-4407 536 -602 912 -1214 1183 -1925 193 -508 299 -1040 312 -1570 9 -396 -41
-768 -153 -1145 -122 -404 -374 -837 -675 -1154 -181 -192 -476 -415 -719
-544 -635 -339 -1413 -446 -2280 -316 -388 58 -886 210 -1288 393 -316 143
-545 271 -859 478 -271 180 -458 324 -738 572 -160 142 -8272 8253 -8372 8371
-420 498 -690 985 -832 1503 -107 386 -141 732 -106 1060 68 629 355 1132 823
1445 331 222 668 323 1157 347 211 11 569 -36 847 -111 254 -68 589 -210 830
-350 123 -71 412 -260 441 -288 6 -6 68 -56 137 -110 102 -81 916 -889 4484
-4455 2397 -2396 4392 -4396 4434 -4446 175 -208 306 -452 372 -695 72 -262
65 -546 -19 -771 -85 -225 -288 -417 -530 -500 -136 -47 -377 -64 -550 -39
-284 41 -580 178 -851 393 -41 33 -1489 1473 -3217 3201 l-3143 3141 -95 -95
c-52 -52 -95 -99 -95 -103 0 -5 1412 -1421 3138 -3146 1994 -1994 3172 -3164
3232 -3212 308 -245 626 -394 970 -455 146 -26 404 -24 540 6 380 81 662 295
828 626 34 70 74 187 99 299 26 114 25 451 -1 580 -74 363 -227 673 -482 974
-81 96 -8699 8713 -8809 8808 -437 378 -870 638 -1360 817 -272 100 -574 170
-844 196 -152 15 -486 12 -640 -5 -442 -50 -862 -224 -1196 -496 -351 -286
-611 -716 -720 -1190 -150 -649 -57 -1371 266 -2073 167 -363 413 -735 705
-1066 116 -131 8272 -8284 8409 -8406 406 -359 852 -667 1320 -909 798 -415
1610 -625 2412 -625 148 0 342 10 463 25 19 2 60 7 90 10 443 53 985 246 1363
486 631 400 1076 979 1315 1709 248 756 237 1689 -29 2575 -188 623 -477 1207
-878 1775 -116 164 -281 371 -450 565 -57 66 -2051 2067 -4430 4448 l-4326
4327 -100 -100z"/>
</g>
</svg>
